<?xml version="1.0" encoding="UTF-8"?>
<svg id="Layer_2" data-name="Layer 2" xmlns="http://www.w3.org/2000/svg" viewBox="0 0 377.76 335.06">
  <defs>
    <style>
      .cls-1 {
        fill: #ffe3a4;
      }

      .cls-2 {
        fill: #2fc0b1;
      }

      .cls-3 {
        fill: #fff;
      }

      .cls-4 {
        fill: #fc8f1a;
      }

      .cls-5 {
        fill: #e59339;
      }

      .cls-6 {
        fill: #1aad83;
      }

      .cls-7 {
        fill: #9fffe4;
      }

      .cls-8 {
        fill: #84777b;
      }

      .cls-9 {
        fill: #ffd469;
      }

      .cls-10 {
        fill: #58edc6;
      }

      .cls-11 {
        fill: #2ecc8f;
      }

      .cls-12 {
        fill: #6fb259;
      }

      .cls-13 {
        fill: #8e8eaf;
      }

      .cls-14 {
        fill: #9c4818;
      }

      .cls-15 {
        fill: #443b3d;
      }

      .cls-16 {
        fill: #fc3535;
      }

      .cls-17 {
        fill: #acb2e5;
      }

      .cls-18 {
        fill: #6395a5;
      }

      .cls-19 {
        fill: #b5bec6;
      }

      .cls-20 {
        fill: #fca870;
      }

      .cls-21 {
        fill: #ffff76;
      }

      .cls-22 {
        fill: #c9d6f2;
      }

      .cls-23 {
        fill: #2f6d93;
      }

      .cls-24 {
        fill: #6d5e61;
      }

      .cls-25 {
        fill: #f07565;
      }

      .cls-26 {
        fill: #4691b2;
      }

      .cls-27 {
        fill: #ff7b22;
      }

      .cls-28 {
        fill: #db193a;
      }

      .cls-29 {
        fill: #c1c1c1;
      }

      .cls-30 {
        fill: #aa9fa1;
      }

      .cls-31 {
        fill: #ff7443;
      }

      .cls-32 {
        fill: #b3b3ba;
      }

      .cls-33 {
        fill: #ffc024;
      }

      .cls-34 {
        fill: #ef520c;
      }

      .cls-35 {
        fill: #6d2309;
      }

      .cls-36 {
        fill: #95bcc4;
      }
    </style>
  </defs>
  <g id="OBJECTS">
    <g>
      <path class="cls-33" d="m269.05,165.16c2.65.44,5.32,1.09,7.96,1.86,3.8,1.12,7.55,2.51,11.13,3.94,13.4,5.34,25.78,13.15,36.28,22.79,5.48,5.03,11.03,10.63,14.89,16.93,1.69,2.76,2.94,6.18,3.34,9.57-.34.8-.81,1.53-1.38,2.18-4.75,5.44-16.73,5.79-23.1,6.98-8.62,1.64-17.26,3.25-25.85,5.04.18-.5-.21-.84-.64-.88-8.62-22.74-16.99-45.99-28.02-67.8,1.49-.76,3.47-.92,5.39-.61Zm23.83,45.63c.7,3.8.64,9.74,3.59,12.69,3.02,3.03,8.25,1.6,12.05,1.23,3.32-.31,8.35.02,11.04-2.32,1.08-.95,1.58-2.05,1.64-3.22.27-5.48-9.05-12.71-12.15-15.13-2.62-2.05-11.97-9.36-15.64-5.92-.21.04-.4.14-.5.35-.14.3-.27.59-.38.9-.09.2-.17.42-.25.65-.02.06,0,.11-.02.16-.28,1.01-.41,2.03-.42,3.06-.04,2.49.56,5,1.03,7.55Z"/>
      <path class="cls-33" d="m253.55,109.07c-.93-2.3-2.67-4.4-3.25-6.95-.73-3.23-.3-6.23.08-9.42,3.43,1.18,5.12,2.98,6.2,6.54,1.09,3.61,2.2,9.22-3.03,9.83Z"/>
      <path class="cls-19" d="m260.97,124.95c.06.16.16.27.28.34,0,.02,0,.03,0,.05-.26.05-.51.12-.75.19-.82-4.8-2.12-9.73-3.87-14.27.41-.19.78-.45,1.11-.77.39,1.89.99,3.76,1.4,5.65.63,2.9.82,6,1.82,8.8Z"/>
      <path class="cls-19" d="m263.5,131.82c.55-7.56.84-16.26-.28-23.79.21-.2.24-.55-.08-.74-.02,0-.03-.02-.05-.03-.09-.25-.38-.36-.64-.34-.81-.37-1.69-.61-2.57-.82.07-.34.13-.69.17-1.04.68.27,1.48.39,2.09.56.63.18,1.63.51,2.41.39-.61,4.73-.06,9.75.03,14.5.07,3.84-.18,7.79.17,11.63-.41-.13-.83-.24-1.25-.34Z"/>
      <path class="cls-4" d="m250.34,111.53c-.45.32-1.11.47-1.68.71-3.67-3.31-2.91-10.86-3.64-15.46.57-.33,1.13-.58,1.87-.4.15.04.31.07.47.11-.28,2.09-.13,4.25.3,6.29.53,2.49,1.56,5.84,3.64,7.74-.3.37-.59.75-.96,1.02Z"/>
      <path class="cls-6" d="m253.48,132.03c-2.63.67-5.12,1.79-7.2,3.29-3.8-1.71-8.17-2.39-12.37-2.87.04-.54.04-1.08.01-1.63,3.72,1.02,7.45,2.32,11.33,2.56.51.03,1.01-.45.99-.95,1.81-.88,3.47-2.09,5.4-2.8,1.36-.5,2.79-.8,4.24-.99-.95.9-2.2,2.2-2.4,3.39Z"/>
      <path class="cls-4" d="m261.62,131.48c-1.57-.2-3.18-.19-4.78-.03.38-.51.79-1,1.24-1.46.99-.99,2.18-1.73,3.28-2.56.07,1.37.16,2.73.25,4.05Z"/>
      <path class="cls-21" d="m294.65,205.77c.49,3.03,1.33,6.05,1.93,9,0,.08.03.18.05.27,4.01-.18,8.02-.34,12.04-.44h0c2.34-.07,4.68-.12,7.02-.15-.26-.26-.48-.49-.65-.69-1.59-1.91-3.34-3.7-5.21-5.38-1.99-1.79-11.77-10.45-15.53-8.36-.12,1.91.04,3.82.34,5.73Z"/>
      <path class="cls-33" d="m253.19,148.63c1.55,2.28,2.74,4.79,4.29,7.08,1.64,2.43,3.99,4.47,5.39,7.02.03.05.04.11.06.16,1.71-.59,3.69-.69,5.58-.46,2.81.33,5.64.9,8.48,1.62-1.26-2.89,3.26-5.06,6.14-5.55,1.96-.34,4.81-.97,6.2-2.54.86-.96.95-3.29,1.05-4.57.12-1.54.05-3.14-.06-4.71-.04-.53-.08-1.05-.11-1.57-.37-5.11-1.51-10.05-2.44-15.06-5.54-1.33-11.17-2.16-16.92-2.52-1.18-.08-2.36-.14-3.55-.17.02,1.93-.04,3.85-.27,5.74,1.34.67,2.57,1.54,3.63,2.62.8.79,1.49,1.68,2.09,2.71.02.03.02.05.03.07.12.09.22.22.26.38.13.57.21,1.15.22,1.76.03.53.02,1.08-.04,1.63.73.48,1.34,1.23,1.82,1.87.79,1.04,1.05,2.11,1.22,3.37.03.16-.03.29-.11.39.18,3.77-4.97,5.44-4.97,9.21,0,.24-.09.42-.21.58.53.98.51,2.02-.27,3.04-.9,1.18-2.53,1.58-3.93,1.04-1.36-.51-2.27-1.76-2.16-3.19.08-.96.82-2.33,1.9-2.58.24-1.32.66-2.58,1.12-3.84-.57.37-1.17.68-1.8.9-.13.05-.27.05-.4.04-2.29.59-4.51.08-6.57-1.22-1.38-.87-3.41-2.54-3.56-4.31-.64.42-1.37.77-2.12,1.03Z"/>
      <path class="cls-11" d="m232.94,143.81c-.02,2.3,0,4.61.06,6.92,4.61-.57,8.86-1.89,13.31-3.21-.15-.67.28-1.41,1.17-1.43,1.56-.04,2.98.39,4.58.14,1.29-.21,2.41-.72,3.57-1.24-.69-1.4-.79-3.05,0-4.46.1-.17.22-.36.36-.53,1.26-1.58,3.99-2.82,5.83-1.9,1.16.19,2.17,1,2.86,2.03.72,1.04,1.1,2.31.95,3.4-.42,3.08-3.98,5.25-7.03,4.18-.46-.16-.9-.4-1.29-.69,1.02.8,1.85,1.98,2.98,2.64,1.32.78,2.96,1.28,4.54,1.62,1.29-1.58,2.83-2.84,3.98-4.53v-.02c.15-.23.29-.46.43-.69,1.13-2.03,1.67-4.31,2.16-6.55-7.37-5.52-15.3-8.35-23.57-2.13-.49.37-1.05.36-1.5.14-4.4-.36-8.76-1.52-13.14-2.21-.15,2.84-.24,5.69-.25,8.54Z"/>
      <path class="cls-36" d="m162.62,194c2.19,1.08,4.59,1.88,6.94,2.46.17.05.34.08.51.12,7.02,1.71,14.25,2.76,21.34,4.1,15.13,2.86,30.26,6.41,45.46,8.81.38.06.44.45.27.71.04.05.06.12.06.18.06,10.78-2.28,21.99-4.36,32.55-1.71,8.6-3.41,17.77-6.2,26.33,1.92.37,3.85.76,5.77,1.12,1.12.21,7.59,1.91,10.48,1.87,1.05-3.61,2.5-7.19,3.45-10.75,1.53-5.77,2.78-11.61,3.86-17.47,1.16-6.24,2.11-12.52,3.04-18.8.09-4.88,1.56-9.74.82-14.22-.43-1.71-1.2-3.32-2.52-4.71-3.52-3.71-9.42-5.69-14.06-7.72-5.98-2.64-12.06-5.08-18.22-7.33-11.54-4.2-23.43-7.21-35.13-10.91-.6.1-1.17.2-1.68.3-4.37.87-8.79,1.46-13.24,1.8-.28,1.87-1.29,3.75-2.16,5.38-.48.9-1.02,1.82-1.61,2.7-.82,1.25-1.76,2.45-2.83,3.48Z"/>
      <path class="cls-33" d="m299.42,133.67c-.84.02-1.69.09-2.53.12-1.98.07-3.96.14-5.94.25-.38-1.19-.8-2.36-1.26-3.48,3.28.86,6.52,1.88,9.73,3.11Z"/>
      <path class="cls-24" d="m263.15,143.07c-.19,1.73-2.45,3.02-4.05,2.12-1.45-.82-1.99-2.85-.81-4.08.82-.86,1.89-.91,2.97-.95,1.07.67,2.05,1.45,1.89,2.92Z"/>
      <path class="cls-21" d="m293.08,152.81c-.07.59-.17,1.2-.3,1.79,3.12-2.4,3.83-5.67,3.61-9.19-.2-3.11-1.12-6.4-1.74-9.46-1.01.08-2.04.16-3.06.24.87,3.28,1.43,6.71,1.61,10.07.14,2.24.1,4.44-.11,6.55Z"/>
      <path class="cls-19" d="m269.56,151.94c.32-.86.73-1.76,1.06-2.68,1.01-1.42,1.77-3.07,2.21-4.75.29.19.57.4.81.66.51.55,1.03,1.2,1.39,1.89-.94,3.95-6.08,5.64-5.94,10.02.01.4.22.66.5.82.22,1.2-.77,2.58-2.12,2.08-.63-.24-1.02-.79-.91-1.46.05-.31.2-.68.37-.95.19-.29.49-.45.64-.77.06-.11.07-.24.05-.37.83-1.42,1.38-2.96,1.96-4.5Z"/>
      <path class="cls-27" d="m296.77,215.98c.15,1.13.33,2.54.76,3.22,1.07,1.73,4.01,2.93,5.93,3.03,2.98.17,6.44-.56,9.41-.89,2.15-.24,4.82-.07,4.98-3.17,0-.2,0-.42,0-.65-.04-.71-.71-1.55-1.41-2.3-1.9.12-3.79.22-5.7.3-4.65.21-9.31.35-13.96.46Z"/>
      <path class="cls-25" d="m230.24,136.29c-6.34-.85-12.84-.82-19.23-1-2.19-.06-4.48-.23-6.79-.38.23-1-.03-2.26-.18-3.3,8.54.83,17.67,2.37,26.28,2,0,0,0,0,0,.01-.03.89-.06,1.78-.08,2.67Z"/>
      <path class="cls-14" d="m172.31,79.79c2.71-1.03,5.48-1.78,8.34-2.24,1.37-.24,2.78-.4,4.2-.5.94-.06,1.37,1.03.98,1.72-.6,1.05-1.27,1.88-2.09,2.58,6.31,1.13,12.47-.4,17.79-3.96.1-.11.24-.2.39-.27.04-.03.09-.05.13-.09-1.07-1.22-2.07-2.48-2.98-3.77-4.61-.63-9.05-2.15-13.08-4.38-.71-.38-1.4-.8-2.08-1.22-3.91,3.28-9.76,3.58-14.81,2.35,2.15,1.26,4.43,2.18,7.12,2.66.88.15,1.18,1.44.5,1.97-1.92,1.49-3.38,3.15-4.43,5.15Z"/>
      <path class="cls-16" d="m186.15,65.53c4.71,2.88,19.63,9.71,22.37,1.6,1.26-3.71.88-8.53,1.27-12.42.37-3.63.76-7.25,1.34-10.85-.49-.74-.34-1.93.82-2.24,10.05-2.74,20.19-5.23,30.31-7.7,8.83-2.16,17.72-4.86,26.72-6.42-4.98-.7-10.07-1.28-14.86-2.57-.7-.19-.99-.83-.9-1.43-1.37-2.09-2.92-4.03-4.6-5.82-9.43-10.03-23.27-15.24-37.58-14.6-9.46.42-19.24,3.46-26.8,9.06-4.55,3.38-8.3,7.69-10.69,12.93-6.66,14.55-1.32,31.91,12.6,40.46Z"/>
      <path class="cls-25" d="m212.12,63.3c2.12,1.25,4.08,2.49,4.63,5.15.64,3.07-.32,6.36-1.56,9.3-1.95-2.05-3.77-4.29-5.45-6.76.8-.92,1.4-2.12,1.71-3.69.26-1.31.48-2.65.67-4Z"/>
      <path class="cls-14" d="m233.64,42.29c-.63.84-1.28,1.65-1.96,2.41,7.89-1.3,15.11-4.41,21.3-9.53.56-.47,1.3.27.79.79-.06.05-.11.11-.17.17.05.08.09.17.09.27.27,3.14.17,6.44-.17,9.77.96-.07,1.83-.31,2.61-.69,3.02-1.44,4.45-4.88,2.57-8.49-.41-.78.45-1.57,1.23-1.15,1.76.91,3.54,1.83,5.33,2.7-2.12-2.6-4.79-4.29-8.14-5.77-.77.2-1.54.4-2.3.59-3.68.95-7.37,1.87-10.99,2.86-7.78,2.12-15.59,4.23-23.41,6.23,4.04.2,7.97-.25,12.16-1.57.78-.25,1.55.74,1.07,1.39Z"/>
      <path class="cls-4" d="m262.67,289.37c-.15.37-.3.77-.45,1.2-.52-.38-1.68-.9-2.67-.95-1.01-.33-2.11-.5-3.2-.61-3-.29-5.78-.33-8.64-1.43-2.06-.8-3.88-1.95-5.7-3.13.44-.43.64-1.1.65-1.79,0,0,0-.01-.01-.02,1.39,1.24,3.8,1.83,5.43,2.31,4.96,1.48,10.24,1.61,14.59,4.43Z"/>
      <path class="cls-28" d="m162.48,137.31c-.06.67.34,1.07.84,1.2-4.95,13.24-7.98,27.25-10.27,41.14-5.18-.25-10.53-.81-15.24-2.77-1.98-1.56-2.8-3.82-2.23-6.97.39-2.12,1.06-4.23,1.63-6.31,1.25-4.56,2.63-9.09,4.18-13.56,3.24-9.34,7.17-18.46,12.19-27.05,4.61-7.88,10.09-15.32,16.59-21.86-.64,1.58-1.18,3.19-1.64,4.71-3.1,10.24-5.19,20.82-6.06,31.46Z"/>
      <path class="cls-3" d="m217.01,291.96c3.68.69,7.37,1.35,11.06,1.95,9.06,1.47,18.62,1.83,27.61,3.68.49.1.99.21,1.47.32,1.9-.66,3.07-2.47,3.93-4.41-7.23-3.14-16.11-1.26-21.1-8.7-.09-.11-.1-.24-.1-.36-.1-.22-.11-.49.04-.74.23-.37.62-.69.64-1.15.04-.62-.5-1.04-1.05-1.25-1.18-.46-2.36,0-3.56.1-.04.77-.04,2.25-1.07,2.15-.64.68-1.42,1.14-2.28,1.42-1.88.62-4.09.31-5.83-.7-1.32-.78-2.73-2.3-3.36-3.95-.72,0-1.43.06-1.87.75-.6.94.24,1.85-.1,2.75-.1.29-.34.45-.65.48-.75.96-1.53,1.9-2.12,2.97-.77,1.35-1.06,2.74-1.43,4.22-.05.18-.13.35-.24.48Z"/>
      <path class="cls-16" d="m165.69,132.98c3.81.06,7.52-.05,11.21-.35,5.24-.41,10.44-1.15,15.77-2.12.59-9.3,2.18-29.11-3.38-36.06-2.02-2.53-4.99-3.37-9.28-1.39-.83.37-1.58.86-2.28,1.41-.12.09-.24.19-.35.28-5.05,4.31-6.54,12.64-8.02,18.47-1.66,6.52-2.81,13.11-3.67,19.75Z"/>
      <path class="cls-20" d="m200.15,81.07c1.66,1.63,3.39,3.3,5.08,5.02,1.43,1.45,2.83,2.95,4.14,4.49.4-.76,1.01-1.48,1.56-2.05.17-.17.32-.32.47-.46.37-.35.75-.63,1.16-.88-1.83-1-3.44-2.43-5.05-3.68-1.67-1.3-3.31-2.61-4.96-3.92-.78.54-1.57,1.05-2.41,1.48Z"/>
      <path class="cls-26" d="m192.02,83.68c1.85,2.19,3.69,4.35,5.55,6.49,3.95,4.54,7.98,8.97,12.37,13.25.9-2.37,1.31-4.74,1.69-7.29-3.24-2.39-6.22-5.39-9.02-8.47-1.68-1.83-3.3-3.69-4.87-5.47-1.84.73-3.76,1.22-5.72,1.5Z"/>
      <path class="cls-16" d="m184.45,89.48c3.04.14,5.36,1.53,7.06,3.55,2.28,2.72,3.48,6.56,3.91,10.1,1.21,9.99,1.68,21.54-.8,31.37,0,.05-.04.08-.06.13,0,.03,0,.05.02.09,1.76-.11,3.57-.1,5.37-.04,1.45-10.6,2.84-21.46,5.49-31.86-3.64-3.63-7.19-7.5-10.39-11.55-1.59-1.99-3.09-4.03-4.48-6.1-2.05,1.44-4.1,2.86-6.12,4.3Z"/>
      <path class="cls-20" d="m172.5,148.49c2.65.7,5.45.59,8.18.53,5.6-.13,11.21-.33,16.82-.49,10.74-.32,21.82-1.22,32.56-.52,0-1.34,0-2.69.02-4.03,0-1.99.05-3.99.1-5.99-6.66.57-13.47.15-20.14,0-6.1-.15-12.99.53-18.95-.83-3.4,1.66-7.49,2.72-11.66,3.15-4.11.44-8.3.25-11.99-.59-1.99,3.93.97,7.7,5.06,8.78Z"/>
      <path class="cls-20" d="m213.33,44.26c.5-.13,1-.26,1.51-.38,5.04,1.21,10.32,1,15.32-.29-.71.66-1.52,1.21-2.47,1.72-1.02.56-.68,2.32.6,2.26,9.04-.48,17.26-4.07,23.77-9.95-.37,2.17-.72,4.32-1.08,6.47-.95,5.88-1.91,11.72-3.24,17.6-2.6.23-5.1,1.2-7.71,1.52-3.13.38-6.37.32-9.5-.02-2.67-.28-5.32-.82-7.9-1.58-.91-.27-1.82-.57-2.71-.89-2.43-.88-4.68-2.23-7.16-2.92.4-4.52.53-9.12.58-13.53Zm34.63,3.06c-.15-.23-.32-.42-.5-.58-1.86-1.76-5.31-.85-7.14.5-1.3.96.48,2.71,1.76,1.76.95-.69,1.9-.82,2.88-.82.77,0,1.56.1,2.4.09.47,0,.87-.53.6-.96Zm-4.66,13.76c.86,0,1.38-.64,1.5-1.39.22-1.51.51-3.23.27-4.74-.22-1.35-2.14-1.12-2.56-.05-.28.75-.31,1.57-.41,2.37-.09.78-.2,1.57-.25,2.36-.06.77.67,1.43,1.44,1.44Zm-5.72.3c.43.2.96-.19.69-.64-.9-1.53-3.18-2.88-4.98-3.01-.33-.03-.56.44-.29.66.68.59,1.45.97,2.21,1.44.81.49,1.52,1.14,2.37,1.54Zm-7.4-2.41c.31.45.82.72,1.3,1.01.52.31,1.05.62,1.57.93.53.31.99-.45.49-.79-.47-.33-.94-.66-1.41-.99-.44-.29-.9-.69-1.44-.79-.34-.07-.76.28-.51.62Z"/>
      <path class="cls-36" d="m153.78,182.6c.33,4.65,3.1,7.94,6.79,10.25.03-.05.05-.09.09-.14,1.13-1.7,2.38-3.3,3.48-5.01.26-.38.5-.78.74-1.18.73-1.24,1.31-2.64,2.04-3.93-1.41.08-2.82.14-4.23.16-1.97.04-3.94.02-5.91-.05-.99-.03-1.99-.06-3-.11Z"/>
      <path class="cls-10" d="m216.79,79.35c4.86,4.63,10.6,8.13,17.57,10.6.15-.08.32-.15.51-.16.09,0,.18-.02.27-.03,5.85-.65,10.38-8.07,13.88-12.05,2.56-2.92,5.13-5.48,3.54-9.62-.66-1.76-2.6-3.28-3.92-4.83-.2-.03-.39-.11-.55-.23-4.73,3.3-13.02,3.2-18.38,2.58-2.14-.25-4.67-.63-7.22-1.24-3.66-.89-7.35-2.24-9.97-4.35-.06.56-.14,1.11-.21,1.66,2.72,1,5.31,2.82,6.24,5.52,1.28,3.75-.2,8.5-1.77,12.13Z"/>
      <path class="cls-30" d="m202.34,73.53c2.27.03,4.37-.32,6-1.34,3.1,6.67,8.67,12.41,15.32,16.14-8.48-2.7-15.76-7.35-21.32-14.79Z"/>
      <path class="cls-4" d="m339.23,205.85c.84.59,1.66,1.18,2.43,1.79,2.75,2.2,5.27,4.73,8.14,6.77.6,4.26,2.65,8.78-.03,12.81-1.61,2.42-4.01,2.64-6.34,3.24,1.17-1.87,1.93-4.03,2.19-6.34.77-6.73-2.42-12.95-6.4-18.28Z"/>
      <path class="cls-18" d="m152.87,182.56c.92,13.48,18.03,15.64,28.85,17.71,18.18,3.47,36.67,6.19,54.72,10.16-1.96,10.96-2.71,22.07-4.92,33.03-1.74,8.62-4.44,16.99-6.68,25.47-1.28-.25-2.57-.48-3.86-.71,1.37-7.17,2.84-14.32,4.42-21.44,1.86-8.37,4.57-16.83,5.62-25.35,0-.03.03-.05.03-.08,0-.05,0-.11,0-.16.04-.3.09-.6.12-.91.03-.28-.07-.48-.23-.61-.06-.38-.11-.76-.09-1.13.02-.65.18-1.41.42-2.11.89-.67.59-2.54-.93-2.74-17.49-2.26-35-4.52-52.63-5.46-8.58-.46-17.78-.15-25.7-3.89-8.31-3.92-11-10.44-10.31-18.86.02-.19-.04-.35-.14-.48,0-.01.02-.03.02-.04.5-1.22.59-2.72.23-4.04,3.52,1.08,7.33,1.46,11.05,1.65Z"/>
      <path class="cls-18" d="m223.38,274.81c-1.17-.18-2.35-.37-3.53-.58.31-1.7.64-3.4.96-5.09,1.24.32,2.49.62,3.74.9-.41,1.58-.8,3.17-1.17,4.76Z"/>
      <path class="cls-18" d="m218.64,256.65c2.97-6.21,3.77-13.95,5.17-20.59,1.32-6.26,3.38-13.28,3.44-19.81.58.07,1.15.15,1.73.22-.26.54-.41,1.15-.46,1.84-.06.87.1,1.95.62,2.74-3.36,8.15-4.93,17.23-6.86,25.75-.9,3.96-1.75,7.93-2.57,11.9-.34-.69-.7-1.38-1.07-2.06Z"/>
      <path class="cls-33" d="m303.78,280.05c2.55-.72,5.23-1.19,7.74-1.8,4.42-1.1,7.48-2.29,10.83-5.11.09-.5.44-.95,1.12-1.12,8.13-1.94,16.19-4.15,24.14-6.68,3.18-1.01,6.34-2.08,9.49-3.18.23-.08.45-.16.67-.24,4.69-1.67,11.77-2.88,7.63-9.53-3.3-5.31-9.83-9.13-15.79-10.99-3.11-.96-6.11-1.34-9.13-1.4-2.67-.05-5.37.16-8.15.43-7.68,11.24-15.84,22.2-23.89,33.19-1.56,2.12-3.11,4.27-4.66,6.42Z"/>
      <path class="cls-19" d="m33.63,205.82c8.71,0,17.42,0,26.12,0,9.02,0,18.04,0,27.06-.01,7.91-.02,16.14.45,24.01-.47.31.55.61,1.13.51,1.77-.1.67-.52,1.04-1.02,1.37-17.18-.33-34.39-.08-51.57-.09-8.46,0-16.91,0-25.37,0-7.79,0-16.03-.7-23.79.25-.14-.5-.29-1-.33-1.52-.04-.54.08-1.05.14-1.57,7.77,1.2,16.43.27,24.23.28Z"/>
      <path class="cls-36" d="m226.27,270.43c5.39,1.18,10.86,2.12,16.3,2.98-.29,1.11-.55,2.22-.72,3.33-5.89-.39-11.53-.92-17.26-1.76.61-1.49,1.16-3.01,1.68-4.55Z"/>
      <path class="cls-16" d="m154.19,179.71c.89.04,1.77.06,2.65.09,1.79.05,3.58.07,5.38.05,5.67-.08,11.34-.59,16.93-1.5,3.46-.56,6.89-1.29,10.28-2.16,1.37-.35,3.68-.62,4.73-1.51,2.27-1.91,2-4.92,1.61-7.36-.46-2.9-.68-5.94-.48-8.95.15-2.33.56-4.63,1.31-6.81-4.73.05-9.43.1-14.09.24-5.25.16-11.3.59-15.55-3.03-.41-.35-.78-.72-1.11-1.12-1.52-1.81-2.19-4.05-1.8-6.2.14-.83.45-1.65.93-2.42-.34-.12-.68-.24-1.01-.37-.27.9-.53,1.79-.8,2.68-.9,3.07-1.78,6.14-2.62,9.21-2.63,9.6-4.89,19.23-6.35,29.14Z"/>
      <path class="cls-20" d="m226.13,278.65c.41,1.22.73,2.39,2.14,3.25.99.6,2.1.78,3.21.73.76-.02,1.53-.15,2.27-.31-.09-.84-.04-1.69.19-2.52.04-.11.08-.24.11-.37-.97-.02-1.93-.06-2.91-.14-1.68-.14-3.37-.35-5.02-.63Z"/>
      <path class="cls-24" d="m123.78,206.37c2.53.06,5.18-.04,7.42.15,1.24.1,2.36.28,3.28.63,3.95,1.5,7.64,4.78,8.64,8.84,3.45.22,6.88.62,10.27,1.24,10.37-1.2,20.92-1.42,31.35-1.98,7.25-.39,14.6-1.14,21.93-1.53-2.88-.33-5.76-.65-8.66-.93-10.75-1.08-21.54-1.3-32.29-2.21-6.86-.59-14.04-2.09-19.58-6.2-.77-.57-1.51-1.19-2.21-1.86-.34-.34-.67-.69-1.01-1.07-3.23.74-6.58.97-9.86,1.43-3.75.51-6.42,1.54-9.28,3.5Z"/>
      <path class="cls-28" d="m4.1,128.66c-.3,1.39-.46,2.69-.53,3.69-.06.93-.18,2.01-.27,3.13-.74-.77-1.31-1.64-1.31-2.99,0-1.79.98-2.8,2.11-3.84Z"/>
      <path class="cls-19" d="m110.78,145.74c0,6.62,0,13.24,0,19.85,0,6.92,0,13.84,0,20.76,0,5.57-.62,11.64.26,17.23-.86-.11-1.73-.19-2.6-.26-.02-1.22-.09-2.43-.17-3.64.61-5.25.18-10.78.19-15.98,0-6.57,0-13.13,0-19.7,0-6.86,0-13.73-.01-20.59,0-5.5.48-11.29-.25-16.79.05-.03.11-.05.16-.09.52-.41.87-.8,1.58-.88.44-.05.9.03,1.33.18-1.17,6.44-.48,13.39-.48,19.91Z"/>
      <path class="cls-16" d="m8.27,142.72c1.47-2.51,5.03-4.31,7.54-5.4,2.74-1.2,5.72-1.9,8.7-1.63,12.27-.69,24.84,0,37.11.02,13.06.02,26.3.8,39.34.28-.04-1.33-.07-2.66-.05-3.98.03-2.34.2-4.65.67-6.85.03-.11.08-.19.12-.27-.27-.59-.46-1.22-.89-1.73-.8-.91-1.64-1.14-2.67-1.44-6.47.74-13.27.22-19.75.22h-22.49c-7.49,0-14.99.02-22.48,0-6.61-.02-13.4.26-20-.39-3.14.53-4.79,2.31-5.69,4.61-.75,1.87-.99,4.1-1.12,6.25-.2,3.15-1.29,8.33,1.65,10.31Z"/>
      <path class="cls-33" d="m161.89,219.26c14.64,4.36,27.5,13.05,34.63,27.09,6.3,12.39,7.87,28.76,3.16,42.02,4.97,1.12,9.96,2.17,14.95,3.14-.04-.13-.07-.27-.06-.43.14-3.02,1.96-6.5,4.66-8.23-.05-.13-.09-.26-.1-.37-.19-.97.02-1.96.63-2.76.43-.56,1.11-1.03,1.86-1.29.49-.17,1.01-.26,1.52-.22,0-.05,0-.11.02-.16-.88-.2-1.74-.43-2.6-.68-.9-.26-1.78-.54-2.64-.85-.72-.26-.99-.81-.93-1.34-.22-.31-.33-.71-.25-1.17.04-.23.09-.47.13-.69.62-3.41,1.28-6.8,1.95-10.2-5.66-6.78-9.19-17.83-8.68-26.2.28-4.77,2.3-8.76,4.73-12.61,1.86-2.96,3.94-5.83,5.67-8.9-1.35-.17-2.68-.34-4.03-.5-9.79,1.78-20.05,2.08-29.95,2.84-8.16.62-16.43,1.33-24.67,1.52Z"/>
      <path class="cls-4" d="m260.26,299.3c1.91-1.34,2.9-3.84,3.86-6.12,2.74-6.47,5.35-13,7.89-19.55,2.54-6.55,4.99-13.13,7.34-19.75,2.13-6.01,4.91-12.32,5.76-18.64.03-.24-.06-.44-.22-.59-.01-.04-.01-.08-.03-.12-5.73-16.04-11.93-31.94-17.94-47.88-1.5-3.98-3.1-7.95-4.51-11.96-.43-1.21-.91-2.45-1.11-3.72-.32-2,.21-3.43,1.22-4.4,9.3,22.46,19.63,44.49,27.86,67.37.07.21.22.34.38.4-8.39,21.82-17.15,43.48-26.01,65.12-.08.19-.06.35.01.47-1.47-.34-2.98-.5-4.49-.66Z"/>
      <path class="cls-19" d="m113.81,206.18c1.44,1.25,3.38,2.14,5.39,2.5,4.4.79,8.99-.61,13.34.54,3.96,1.05,6.29,3.58,8.35,6.65-2.49-.09-4.98-.08-7.45.02-3.14-7.13-13.42-4.96-21.06-5.77,1.09-.96,1.66-2.53,1.45-3.93Z"/>
      <path class="cls-3" d="m165.27,136.39c4.14.44,8.13,1.15,12.35.96.21,0,.43,0,.64-.03,5-.32,9.5-1.8,14.29-2.87-.03-.08-.06-.17-.06-.27,0-.7.06-1.7.12-2.91-5.03,1.39-10.33,2.23-15.67,2.61-3.82.28-7.65.32-11.39.15-.09.79-.19,1.57-.28,2.37Z"/>
      <path class="cls-30" d="m116.96,293.96c2.83,3.2,8.88,2.33,10.4-1.69.39-1.04.48-2.09.31-3.06-.46-2.84-3.04-5.07-6.38-4.98-.64.02-1.2.1-1.73.25-.76.55-1.48,1.18-2.09,1.86-1.97,2.21-2.85,5.01-.52,7.62Z"/>
      <path class="cls-33" d="m151.15,219.47c11.31,3.08,21.67,9.35,29.15,18.32,2.43,2.92,4.5,6.04,6.22,9.32,7.33,14.02,8.09,30.8,2.15,45.56,28.03,5.85,56.32,10.65,84.9,14.36,1.98.26,3.97.51,5.95.76.03-.08.07-.16.12-.24,8.31-12.39,18.03-24.03,26.86-36.08,4.37-5.96,8.65-11.98,12.93-18,4.42-6.19,8.84-12.38,13.37-18.48.15-.2.32-.34.51-.43.15-.14.34-.24.59-.3,6.48-1.57,8.87-6.42,8.88-11.74-3.05,4.17-10.47,5.26-15.28,6.26-11.88,2.47-23.79,4.91-35.73,7.11-8.03,21.51-16.54,42.9-25.73,63.96-.11.26-.32.37-.55.41.12.25-.05.61-.4.62-2.19.11-4.41-.21-6.6-.43-1.05-.1-2.12-.16-3.19-.27-8.97,0-18.38-2.05-27.17-3.45-10.05-1.6-20.03-3.56-29.96-5.81-.55.08-1.14-.33-1.11-1.02-.05-.27,0-.56.1-.82.95-5.76,1.69-11.47,1.79-17.09.2-9.69-1.48-19.11-7.16-28.1-8.21-12.98-22.89-20.99-38.05-23.97-.87-.17-1.74-.31-2.61-.45Z"/>
      <path class="cls-32" d="m111.15,284.55c1.27-2.74,3.4-4.98,6.27-5.64,33.46,9.42,67.53,17.12,101.85,23.07-8.11-.23-16.28,0-24.33,0-7.27,0-14.55-.02-21.84-.02h-13.33c-12.03.02-24.09,0-36.08-1.1-5.36-.49-12.11-1.43-13.59-7.42-.67-2.71-.27-6.07,1.04-8.9Zm3.84,11.23c4.15,4.7,12.59,3.37,14.81-2.46.43-1.13.61-2.28.57-3.37-.17-4.74-4.36-8.73-9.76-8.17-2.47.26-4.65,1.76-5.99,3.75-.83,1.22-1.37,2.63-1.47,4.05-.34,2.19.28,4.45,1.84,6.21Z"/>
      <path class="cls-24" d="m307.88,326.63c.15.09.31.18.47.27,12.66,7.13,29.14,6.68,42.44,1.43,13.47-5.32,22-15.54,23.68-29.59,1.24-10.3-.22-19.65-5.5-27.62-1.55-2.33-3.42-4.55-5.66-6.64-.04.02-.07.05-.1.07-5.87,2.6-12.45,3.98-18.66,5.65,3.43,1.7,6.34,4.5,8.48,7.75,2.13,3.25,3.47,6.95,3.77,10.47.86,10.02-5.25,19.84-14.98,23.54-8.13,3.09-17.22,1.72-23.85-3.33-1.55-1.17-2.95-2.54-4.18-4.1-4.46-5.62-6.85-14.86-3.31-21.46-1.82.78-3.75,1.32-5.69,1.76-1.67.38-3.4.86-5.13.95-2.45,3.39-4.9,6.78-7.41,10.13-1.05,12.66,3.86,23.87,15.63,30.71Z"/>
      <path class="cls-32" d="m330.68,284.24c1.12,2.28,2.21,4.56,3.25,6.86.59,1.31,1.16,2.63,1.71,3.96,1.78-1.03,3.68-1.88,5.5-2.87-.46-1.95-1.12-3.8-2.08-5.59-.15-.27-.31-.55-.47-.82-1.92-3.16-4.94-2.26-7.91-1.54Z"/>
      <path class="cls-32" d="m315.42,280.67c2.31,3.83,4.3,7.84,6.57,11.69,1.14,1.91,2.4,3.82,4.48,4.83.03,0,.05.03.08.04,2.36,1.1,4.78.14,7.18-.36-.99-1.4-1.91-2.88-2.77-4.41-3.04-5.37-5.42-11.38-7.49-17.03-1.13,2.09-3.5,3.37-5.89,4.23-.63.23-1.28.46-1.94.69-.05.08-.1.17-.18.26,0,.02-.02.04-.04.05Z"/>
      <path class="cls-30" d="m317.46,304.8c.64.64,1.31,1.23,2.01,1.77,6.49,5.05,15.63,5.91,23.19,2.23,8.02-3.9,12.66-12.83,11.35-21.38-.49-3.24-1.69-5.9-3.38-8.15-2.47-3.31-5.97-5.77-9.86-7.96-4.75,1.46-9.74,3.14-14.56,3.6,1.05,2.32,2.17,4.63,3.3,6.93,3.16-.77,7.04-2.35,9.62.21.89.88,1.65,1.94,2.29,3.09,1.27,2.31,2.07,5,2.51,7.38.1.56-.1,1.14-.64,1.43-2.19,1.17-4.51,2.36-6.99,2.83.13.57-.24.95-.73,1.1-3.84,3.66-7.37,3.68-10.49,1.85-5.11-3-9.12-11-11.61-16.27-3.86,6.96-1.81,15.51,3.98,21.35Z"/>
      <path class="cls-30" d="m103.6,301.19c.31.44.64.86,1.01,1.27,3.57,4.09,8.75,6.42,14.28,6.46,4.48.03,7.82-1.51,11.34-3.25.65-.32,1.32-.65,1.99-.97-2.47-.03-5.17-.07-7.85-.31-2.9-.24-5.78-.69-8.35-1.54-3.95-1.3-7.19-3.54-8.59-7.39-2.2-6.01-.13-13.32,4.74-16.79-.96-.19-1.91-.44-2.85-.71-3.57,2.05-6.51,4.52-8.02,8.73-1.78,4.98-.76,10.27,2.31,14.5Z"/>
      <path class="cls-33" d="m88.97,230c.26,0,.51-.11.66-.34,3.31-1.65,6.7-3.03,9.95-4.12,2.4-.8,4.83-1.55,7.28-2.25,6.11-1.74,12.38-3.11,18.71-3.94.14.08.32.14.53.1,19.69-3.08,40.59,4.23,53.16,19.31,6.47,7.76,10.36,17.23,11.62,27.03,1.16,8.97.1,18.22-3.21,26.68-39.78-8.34-79.04-18.79-117.87-31.33v-.04c-3.75-14.48,6.93-24.79,19.16-31.11Zm89.95,38.32c1.74.43,2.51-2.1.79-2.58-19.26-5.31-38.89-9.49-58.59-13.01-.57-.1-1.15-.2-1.72-.3-1.9-.33-2.77,2.46-.86,2.8,2.4.42,4.79.86,7.18,1.31,17.87,3.35,35.57,7.4,53.2,11.78Zm2.21-12.76c-19.82-5.48-40.03-9.73-60.3-13.31-1.9-.34-2.76,2.46-.85,2.8,20.32,3.57,40.37,8.13,60.37,13.09,1.74.43,2.51-2.1.79-2.58Zm-65.09,9.24c20.33,3.57,40.38,8.13,60.38,13.09,1.74.43,2.51-2.1.79-2.58-1.94-.54-3.89-1.06-5.84-1.57-8.88-2.34-17.85-4.45-26.85-6.37-9.17-1.96-18.38-3.74-27.61-5.37-1.9-.33-2.77,2.46-.86,2.8Z"/>
      <path class="cls-4" d="m90.53,223.05c1.08-1.72,5.16-1.08,7.07-1.18,1.23-.06,2.46-.13,3.7-.2-3.9,1.23-7.7,2.67-11.32,4.38.03-1.18.13-2.33.55-3Z"/>
      <path class="cls-24" d="m118.83,217.54c1.74-.29,3.48-.56,5.19-.79.48-.07.97-.13,1.44-.19,1.77-.23,3.57-.38,5.38-.51-1.98-1.43-4.15-2.11-6.41-2.43-1.8-.27-3.67-.31-5.55-.32-.14,1.41-.15,2.84-.05,4.24Z"/>
      <path class="cls-16" d="m87.64,227.21c-2.42,1.25-4.74,2.61-6.92,4.11-.55.38-1.08.77-1.61,1.18-.04-.4-.07-.81-.05-1.24.08-1.51.53-2.96,1.37-4.24,1.75-2.68,4.42-3.53,7.4-3.91-.28,1.3-.26,2.78-.18,4.1Z"/>
      <path class="cls-24" d="m78.59,300.28c.08.61.16,1.22.27,1.83,1.78,10.97,8.11,19.99,18.66,24.72,16.65,7.45,48.28,3.56,56.89-14.27.79-1.63,1.38-3.37,1.75-5.23-4.15.26-8.45-.71-12.53-1.29-2.82-.4-5.72-.7-8.55-1.2-.41.59-.87,1.14-1.39,1.65-3.81,3.7-10.46,5.22-15.53,5.05-6.73-.23-12.97-3.57-16.83-8.88-.42-.58-.8-1.17-1.13-1.8-4.2-7.77-2.39-19.28,5.12-24.22-1.71-.61-3.4-1.23-5.09-1.76-3.92-1.23-8.12-2.06-11.96-3.52-9.16,6.97-11.07,18.08-9.67,28.92Z"/>
      <path d="m308.53,224.72c-3.8.36-9.03,1.79-12.05-1.24-2.95-2.95-2.89-8.88-3.59-12.68-.66-3.6-1.6-7.14-.62-10.61,0-.05,0-.11.02-.16.07-.23.15-.45.25-.65.11-.3.24-.6.38-.9.1-.21.29-.31.5-.35,3.68-3.44,13.03,3.88,15.65,5.92,3.76,2.94,16.69,12.95,10.51,18.35-2.69,2.35-7.72,2.02-11.04,2.33Zm6.52-10.94c-1.6-1.91-3.34-3.7-5.2-5.38-1.99-1.79-11.77-10.45-15.53-8.35-.32,4.94,1.28,9.93,2.27,14.74.02.08.03.18.05.27,6.34-.28,12.72-.53,19.07-.58-.25-.26-.49-.5-.65-.7Zm2.78,3.76c-.04-.72-.71-1.55-1.41-2.31-6.53.4-13.11.6-19.65.76.15,1.14.34,2.54.76,3.22,1.07,1.73,4.02,2.93,5.92,3.04,2.98.17,6.44-.56,9.41-.89,2.29-.26,5.17-.06,4.97-3.82Z"/>
      <path d="m114.99,295.79c-1.56-1.76-2.19-4.02-1.84-6.21.27-3.74,3.47-7.39,7.45-7.8,6.65-.69,11.48,5.54,9.2,11.55-2.22,5.83-10.66,7.16-14.81,2.46Zm6.3-11.57c-.63.02-1.2.11-1.72.25-3.21,2.32-5.66,6.06-2.61,9.49,2.84,3.2,8.89,2.33,10.4-1.7,1.54-4.1-1.58-8.17-6.07-8.05Z"/>
      <path d="m180.35,258.13c-20-4.96-40.05-9.51-60.37-13.09-1.91-.34-1.04-3.13.86-2.79,20.27,3.58,40.49,7.84,60.31,13.31,1.73.48.95,3.01-.79,2.58Z"/>
      <path d="m119.4,252.43c20.27,3.58,40.49,7.84,60.31,13.31,1.73.48.95,3.01-.79,2.58-20-4.96-40.05-9.51-60.37-13.09-1.91-.34-1.04-3.13.86-2.79Z"/>
      <path d="m176.42,277.88c-20-4.96-40.05-9.51-60.37-13.09-1.91-.34-1.04-3.13.86-2.79,20.27,3.58,40.49,7.84,60.31,13.31,1.73.48.95,3.01-.79,2.58Z"/>
      <path d="m242.08,49.01c-1.29.94-3.07-.8-1.77-1.77,2.01-1.49,5.97-2.44,7.64.08.28.43-.12.95-.59.95-1.89.03-3.6-.49-5.28.73Z"/>
      <path d="m242.52,54.91c.41-1.07,2.34-1.31,2.56.04.24,1.51-.06,3.23-.28,4.73-.11.76-.63,1.41-1.5,1.39-.77-.01-1.49-.68-1.44-1.44.05-.79.16-1.58.25-2.36.09-.79.12-1.62.41-2.36Z"/>
      <path d="m237.59,61.38c-.85-.4-1.57-1.06-2.37-1.55-.76-.47-1.53-.86-2.21-1.44-.26-.22-.04-.68.3-.66,1.8.13,4.07,1.49,4.98,3.01.27.44-.27.85-.69.65Z"/>
      <path d="m233.06,60.9c-.52-.31-1.05-.62-1.57-.93-.47-.28-.98-.55-1.3-1-.24-.34.17-.69.52-.63.53.11,1,.49,1.43.79.47.33.95.66,1.42.98.49.34.03,1.1-.5.78Z"/>
      <path d="m4.67,126.46c1.1-3.59,3.1-7.02,6.4-6.88,14.01-1.9,28.91-.66,43.03-.66,7.49,0,14.99,0,22.48,0,7.35,0,15.2-.71,22.48.32.11.02.2.06.3.1,1.31.3,2.57,1.18,3.33,2.14.7.88,1.58,2.6,1.09,3.76,1.19,5.57.4,11.83.39,17.5,0,6.35-.02,12.7-.03,19.05,0,6.05,0,12.09-.01,18.14,0,6.34.51,12.96-.21,19.28.38.96-.19,2.41-.65,3.15-.14.22-.3.45-.48.67,1.02.03,2.03.07,3.04.12.03-.63.08-1.27.13-1.89-.87-5.42-.4-11.26-.4-16.7,0-6.86,0-13.73,0-20.59,0-6.57,0-13.13.01-19.7.01-6.27-.62-12.87.46-19.06.07-.4.41-.61.78-.67,1.51-1.8,5.06-1.85,6.3.25.17.28.16.56.05.79.01.04.04.07.05.11,1.17,6.21.5,12.92.5,19.22,0,6.92,0,13.84,0,20.76,0,6.62,0,13.24,0,19.85,0,4.78.44,9.93.1,14.85.25,4.02,3.2,5.35,6.93,5.8.02-.05.02-.09.05-.14,3.19-5.85,13.69-6.66,20.68-6.5-2.77-4.1-4.12-9.48-1.7-13.8-.46-.14-.81-.52-.72-1.15.18-1.3.28-2.58.39-3.87-2.82-.36-5.29-2.3-6.42-4.89-1.78-4.08.26-9.03,1.35-13.02,3.12-11.38,7.09-22.53,12.43-33.13,8.85-17.55,23.34-37.39,42.47-45.74-2.91.11-5.87-.22-8.76-1.03-.92-.26-1.16-1.63-.24-2.05.86-.3,1.58-.73,2.19-1.29-4.15.52-7.96,1.66-11.82,3.51-.93.45-2.12-.34-1.78-1.37.93-2.86,2.4-5.26,4.52-7.29-3.6-1.04-6.8-2.97-8.99-6.03-.1-.15-.12-.31-.08-.46,0-.41.4-.85.9-.69,3.14.99,6.62,1.21,9.88.77,2.32-.32,4.31-1.21,6.37-2.04-4.82-3.64-8.72-8.4-11.08-13.9-5.37-12.51-2.8-27.3,6.54-37.39C186.22,4.55,200.75-.23,214.52,0c16.83.29,32.62,8.32,41.48,22.21.07.12.12.23.16.34,5.73.59,11.46,2.45,16.87,4.16.9.28.49,1.48-.41,1.33-.04,0-.08-.01-.13-.02-4.01,1.53-8.16,2.79-12.34,3.93,3.9,1.6,7.17,4.89,8.87,8.53.41.88-.5,1.91-1.45,1.35-2.05-1.2-4.17-2.31-6.3-3.39,1.38,4.98-2.6,10-8.06,10.03-.66,4.68-1.8,9.34-3.21,13.58,6.18,3.31,7.7,9.52,3.28,15.01-3.17,3.95-6.73,7.78-10.23,11.46-2.3,2.41-4.8,4.32-8.19,3.45-.26.2-.61.31-1.04.22-.2-.04-.39-.1-.59-.14-6.04.05-12.02-1.6-17.46-4.37-1.02.62-2.01,1.37-2.83,2.18-.81.8-1.19,1.96-1.9,2.79.68.89,1.33,1.79,1.92,2.7.02.03.04.05.06.09.03.05.07.1.1.15.11.17.11.36.04.53.5,3.45-.19,6.74-1.47,10-.37.94-1.52,1.27-2.3.54-.81-.76-1.62-1.53-2.43-2.31-.53,8.28-1.83,16.59-3.21,24.8,9.26.72,19.31.7,28.31,2.94-.11-.84-.12-1.68-.17-2.55-.03-.65.67-1,1.25-.88,3.85.82,7.92,1.23,11.62,2.62l.02-.05c.07-.17.22-.29.39-.34,2.63-3.52,8.58-4.77,12.85-4.1.26-.18.53-.35.8-.51-1.29-4.85-2.55-9.76-3.65-14.65-.44.03-.9,0-1.41-.13-.43,1.06-1.67,2.05-2.47,2.48-.72.38-1.57.67-2.4.58-.2.09-.46.09-.75-.02-2.85-1.14-3.47-3.88-3.97-6.6-.66-3.54-1.23-7.36-.77-10.97-.11-.13-.19-.3-.21-.48-.24-2.04,2.87-3.19,4.66-2.39.27-.82.61-1.63,1.06-2.38.04-.06.09-.11.14-.16.05-.15.14-.28.31-.36,6.33-2.96,9.71,5.94,10.57,10.32.06.33.11.69.13,1.06.33,0,.66.1,1.04.22.81.24,1.64.5,2.44.8.41.16,1.3.52,1.73,1,.32-.06.65.08.75.5,1.15,4.67.92,9.78,1.02,14.57.04,1.65.11,3.31.17,4.99,12.41-.1,24.55,3.17,35.27,9.14.34.19.29.64.05.85-.03.14-.12.26-.27.32-1.6.65-3.3.64-5.02.78-.29.02-.57.04-.86.07,3.84,7.25,3.95,18.65-4.97,22.18-.05.02-.1.03-.15.04-.44.62-.95,1.2-1.59,1.68-1.02.77-2.2,1.16-3.46,1.36-.64.1-8.86.15-6,2.95.35.34.43.72.36,1.05,9.44,2.92,18.68,7.6,26.61,12.42,9.77,5.94,18.79,13.25,26.42,21.66,3.09,1.22,5.78,3.58,8.35,5.58,3.28,2.56,6.88,5.22,9.41,8.49.04.05.06.11.08.16.03.04.07.07.09.11,2.19,4.12,3.08,9.76.92,14.05-2.38,4.75-6.72,4.63-11.33,6.16-.2.07-.39.05-.56,0-1.6,1.37-3.54,2.4-5.76,2.98-.25.37-.5.73-.75,1.1,12.7-3.47,30.42,3.8,35.38,15.36,2.13,4.97-1.09,7.63-5.09,9.44,9.03,4.99,12.69,16.25,13.25,25.71.69,11.55-1.65,23.86-10.12,32.49-15.89,16.2-46.81,19.4-65.03,5.26-7.93-6.15-13.96-16.41-13.09-26.42-2.49,3.23-5.05,6.4-7.7,9.47-.05.06-.11.11-.17.16.06.75-.41,1.5-1.41,1.39-16.25-1.82-32.5-4.06-48.7-6.67-15.06,1.72-30.64.88-45.8.94-8.73.03-17.47.14-26.2.15-1.38,27.15-43.97,33.72-64.21,24.03-11.83-5.66-18.34-16.49-19.67-28.93-1.08-10.15.25-25.11,10.8-30.41,0-.07-.02-.13-.01-.2-6.26-1.98-12.49-4.02-18.69-6.13-.94-.32-1.15-1.21-.9-1.91-2.43-10.29,2.31-20.17,10.01-27.1-1.61-2.64.17-7.17,1.93-9.25,2.23-2.65,6.2-4.46,9.75-3.74.47-.8,1.17-1.42,2.23-1.69,2.91-.75,6.56-.24,9.56-.35,3.59-.13,7.19-.37,10.79-.34,1.72-.39,3.44-.74,5.16-1.06-.18-1.63.04-3.23.62-4.73-3.72-.04-7.44-.28-10.82-2.26-15.43.22-30.89.02-46.32.02-8.14,0-16.29,0-24.43,0-8.6,0-17.8.87-26.31-.32-.24-.03-.45-.16-.62-.32-.11-.05-.21-.13-.3-.23-1.27-1.39-1.73-4.2-.69-5.82.09-.14.21-.25.33-.33.11-.23.31-.43.6-.48.68-.13,1.37-.23,2.06-.32-1.36-1.23-2.16-3.35-1.83-5.06-1.4-8.76-.53-18.26-.55-27.09-.01-4.76-.01-9.51,0-14.27,0-3.67-.36-7.59.17-11.27-1.29.14-2.52-.51-3.49-1.8-1.04-1.4-1.36-3.31-1.4-5.28-4.71-2.1-4.17-11.46,1.48-11.99Zm105.26-.81c-.71.08-1.05.48-1.58.88-.05.04-.11.06-.16.09.74,5.49.25,11.28.25,16.79.01,6.86.02,13.73.01,20.59,0,6.57,0,13.13,0,19.7,0,5.2.43,10.73-.19,15.98.09,1.21.15,2.42.17,3.64.87.07,1.74.15,2.6.26-.88-5.58-.26-11.66-.26-17.23,0-6.92,0-13.84,0-20.76,0-6.62,0-13.24,0-19.85,0-6.52-.7-13.47.48-19.91-.43-.15-.89-.23-1.33-.18Zm23.14,77.21c-3.74.51-6.42,1.55-9.28,3.5,3.93.1,8.11-.2,10.71.78,3.95,1.49,7.64,4.77,8.64,8.84,3.44.21,6.88.62,10.26,1.24,10.38-1.2,20.92-1.41,31.34-1.98,7.25-.39,14.61-1.14,21.94-1.53-2.88-.33-5.77-.65-8.66-.94-10.75-1.08-21.54-1.3-32.29-2.21-7.82-.67-16.05-2.52-21.79-8.06-.35-.33-.68-.69-1.01-1.07-3.23.74-6.58.97-9.87,1.42Zm66.62,85.51c4.97,1.12,9.95,2.17,14.96,3.13-.04-.13-.07-.27-.06-.43.14-3.01,1.96-6.5,4.65-8.23-.04-.13-.08-.26-.1-.38-.18-.97.02-1.95.63-2.76.7-.93,2.12-1.62,3.38-1.51,0-.06,0-.11.02-.17-1.81-.42-3.57-.92-5.24-1.52-.71-.26-.98-.82-.92-1.35-.22-.31-.34-.71-.25-1.17.66-3.64,1.36-7.27,2.09-10.89-5.66-6.78-9.18-17.84-8.68-26.2.51-8.42,6.44-14.43,10.4-21.51-1.34-.17-2.68-.34-4.02-.5-9.8,1.79-20.06,2.09-29.96,2.85-8.16.62-16.43,1.33-24.67,1.51,14.64,4.36,27.49,13.05,34.63,27.1,6.29,12.39,7.87,28.76,3.15,42.02Zm65.06,11.11c8.86-21.65,17.62-43.31,26.01-65.12-.17-.07-.31-.2-.38-.4-8.23-22.88-18.55-44.91-27.86-67.37-1.01.97-1.54,2.4-1.22,4.4.2,1.27.68,2.51,1.11,3.72,1.41,4.01,3.01,7.98,4.51,11.96,6.01,15.94,12.21,31.84,17.94,47.88.01.04.02.08.03.12.15.15.25.34.22.59-.84,6.32-3.63,12.63-5.76,18.64-2.34,6.62-4.8,13.2-7.34,19.75-2.54,6.55-5.15,13.08-7.89,19.55-.96,2.28-1.95,4.78-3.86,6.12,1.51.16,3.02.32,4.49.66-.07-.13-.09-.29-.01-.47Zm-68.15-147.92c-4.73.05-9.43.1-14.08.23-5.25.16-11.3.59-15.55-3.03-3.01-2.56-3.97-6.54-1.98-9.74-.34-.11-.68-.24-1.01-.36-4.03,13.58-7.71,27.03-9.77,41.03.89.04,1.77.07,2.65.1,7.46.24,14.94-.27,22.31-1.46,3.46-.56,6.89-1.29,10.28-2.15,1.37-.35,3.67-.62,4.73-1.51,2.27-1.91,2-4.92,1.61-7.36-.83-5.13-.88-10.76.82-15.76Zm-3.96-20.29c-8.63,2.38-18.1,3.16-27.06,2.75-.1.79-.2,1.58-.29,2.37,4.35.46,8.53,1.23,12.99.94,5-.32,9.51-1.81,14.29-2.87-.03-.09-.05-.17-.05-.28,0-.71.05-1.7.12-2.91Zm-51.03,53.68s-.02.03-.02.04c.09.13.15.28.14.48-.7,8.41,2,14.93,10.31,18.86,7.92,3.74,17.11,3.43,25.7,3.89,17.63.95,35.14,3.2,52.63,5.46,1.52.2,1.82,2.07.93,2.74-.23.7-.39,1.46-.42,2.11-.01.38.04.76.09,1.13.16.13.26.32.23.61-.03.3-.08.61-.12.91,0,.05,0,.11,0,.16,0,.03-.02.05-.03.08-1.05,8.52-3.76,16.98-5.62,25.35-1.58,7.13-3.05,14.28-4.42,21.44,1.29.22,2.57.46,3.86.71,2.23-8.48,4.93-16.85,6.68-25.47,2.21-10.95,2.96-22.07,4.92-33.03-18.05-3.98-36.54-6.7-54.72-10.16-10.81-2.06-27.93-4.22-28.85-17.71-3.72-.19-7.53-.57-11.05-1.65.36,1.32.27,2.82-.23,4.04Zm80.69,61.86c1.93-8.52,3.49-17.61,6.86-25.75-.53-.79-.69-1.87-.62-2.74.05-.69.2-1.29.46-1.84-.58-.07-1.15-.15-1.73-.22-.06,6.53-2.12,13.55-3.44,19.81-1.4,6.64-2.2,14.38-5.17,20.59.37.68.73,1.37,1.07,2.06.82-3.97,1.67-7.94,2.57-11.9Zm-2.42,27.42c1.18.21,2.36.4,3.53.58.36-1.59.76-3.18,1.17-4.76-1.25-.29-2.5-.59-3.74-.9-.32,1.7-.65,3.39-.96,5.09Zm1.24-38.04c1.39-6.49,2.05-13.82,4.28-20.18-.89-.11-1.79-.23-2.68-.34-1.42,6.78-8.25,12.03-9.34,19.19-.77,5.07.16,10.13,1.94,14.92.49,1.32,1.1,2.6,1.75,3.87.71-5.83,2.85-11.81,4.06-17.45Zm12.85,43.6c.03-.12.07-.25.11-.38-2.65-.06-5.32-.33-7.93-.77.41,1.22.73,2.39,2.14,3.25,1.65,1.01,3.65.82,5.48.42-.1-.84-.04-1.7.19-2.52Zm7.91-3.05c.17-1.11.43-2.22.72-3.33-5.45-.86-10.91-1.8-16.3-2.98-.52,1.54-1.08,3.06-1.68,4.55,5.73.84,11.37,1.37,17.26,1.76Zm-81.28-83.89s.05-.1.08-.14c1.39-2.08,2.95-4.01,4.22-6.18.73-1.25,1.31-2.65,2.04-3.93-3.37.19-6.75.23-10.13.12-.99-.03-1.99-.07-3-.11.33,4.66,3.1,7.95,6.79,10.25Zm23.56-12.51c-.59.1-1.16.21-1.67.31-4.37.86-8.79,1.45-13.24,1.79-.28,1.88-1.29,3.75-2.16,5.37-1.18,2.19-2.63,4.42-4.44,6.18,2.19,1.08,4.59,1.89,6.94,2.47,7.18,1.77,14.59,2.84,21.85,4.22,15.13,2.86,30.26,6.4,45.46,8.82.39.06.44.44.28.71.04.05.06.11.06.18.05,10.77-2.28,21.99-4.37,32.55-1.7,8.6-3.41,17.77-6.2,26.33,1.92.37,3.85.75,5.77,1.11,1.12.21,7.59,1.9,10.48,1.87,1.06-3.61,2.51-7.19,3.45-10.75,1.53-5.77,2.78-11.61,3.86-17.47,1.16-6.25,2.12-12.52,3.05-18.8.09-4.88,1.57-9.73.82-14.22-.43-1.72-1.21-3.32-2.53-4.71-3.51-3.7-9.43-5.68-14.06-7.72-5.99-2.64-12.06-5.08-18.22-7.32-11.54-4.21-23.44-7.21-35.14-10.91Zm58.52,102.28s0,.01.01.02c0,.69-.21,1.36-.65,1.79,1.83,1.18,3.64,2.33,5.7,3.13,2.85,1.11,5.64,1.15,8.64,1.43,1.09.11,2.19.28,3.2.61.98.05,2.15.57,2.67.95.15-.42.3-.82.45-1.2-4.35-2.82-9.63-2.95-14.59-4.43-1.63-.48-4.03-1.07-5.43-2.31Zm18.43,10.88c-7.23-3.14-16.11-1.26-21.1-8.7-.08-.12-.1-.24-.1-.36-.11-.22-.11-.49.04-.74.23-.38.61-.69.64-1.15.04-.63-.5-1.04-1.05-1.26-1.18-.46-2.37,0-3.56.11-.03.76-.04,2.25-1.07,2.15-2.06,2.17-5.57,2.18-8.11.7-1.32-.77-2.72-2.3-3.35-3.94-.72,0-1.43.06-1.87.75-.6.94.24,1.85-.1,2.75-.11.29-.34.44-.65.47-.75.97-1.53,1.9-2.13,2.98-.76,1.35-1.06,2.74-1.43,4.22-.05.19-.13.35-.24.48,3.68.69,7.37,1.35,11.07,1.95,9.56,1.55,19.66,1.86,29.08,4,1.9-.66,3.07-2.47,3.93-4.41Zm-107.5-170.5c-5.03,8.59-8.95,17.71-12.19,27.05-1.55,4.47-2.93,9-4.18,13.56-.57,2.08-1.24,4.19-1.63,6.31-.58,3.16.25,5.41,2.23,6.97,4.71,1.95,10.06,2.51,15.24,2.77,2.29-13.89,5.31-27.9,10.27-41.14-.5-.13-.9-.53-.84-1.2.87-10.64,2.96-21.22,6.06-31.46.46-1.52,1-3.13,1.64-4.71-6.5,6.54-11.98,13.98-16.59,21.86Zm26.41-29.94c-.83.38-1.58.86-2.28,1.41-.12.09-.23.19-.35.29-5.05,4.3-6.54,12.64-8.02,18.47-1.66,6.52-2.81,13.11-3.67,19.76,9.23.16,17.89-.82,26.98-2.47.8-12.67,3.47-44.88-12.66-37.46Zm-10.9-23.05c2.15,1.26,4.43,2.19,7.13,2.65.88.15,1.18,1.45.5,1.97-1.92,1.49-3.37,3.16-4.43,5.15,4.02-1.53,8.16-2.43,12.54-2.74.94-.07,1.37,1.03.98,1.72-.6,1.05-1.27,1.88-2.09,2.57,6.31,1.14,12.47-.41,17.79-3.96.11-.11.24-.2.39-.26.04-.03.09-.06.14-.09-1.07-1.22-2.07-2.48-2.97-3.77-5.42-.74-10.61-2.7-15.16-5.61-3.91,3.29-9.76,3.58-14.81,2.36Zm99.86-42.51c-4.98-.7-10.06-1.27-14.85-2.57-.71-.19-.99-.83-.9-1.42-9.11-13.81-25.31-21.18-42.17-20.43-15.15.67-31.14,8.06-37.5,21.98-6.65,14.56-1.31,31.92,12.61,40.46,4.7,2.89,19.63,9.71,22.37,1.6,1.25-3.71.88-8.53,1.27-12.42.36-3.63.75-7.25,1.34-10.86-.5-.74-.34-1.92.81-2.24,10.05-2.74,20.19-5.23,30.32-7.7,8.82-2.15,17.72-4.86,26.71-6.42Zm-59.22,43.5c1.69,2.47,3.5,4.71,5.45,6.76,1.24-2.94,2.2-6.23,1.56-9.3-.55-2.66-2.52-3.9-4.63-5.15-.19,1.35-.41,2.69-.67,4-.31,1.57-.91,2.78-1.71,3.69Zm44.02-35.03c-.06.06-.12.11-.17.17.05.08.09.18.1.28.26,3.14.17,6.45-.18,9.76,4.67-.35,7.55-4.63,5.18-9.18-.41-.78.45-1.57,1.24-1.15,1.76.92,3.53,1.83,5.33,2.7-2.13-2.59-4.8-4.28-8.13-5.76-4.45,1.17-8.91,2.26-13.3,3.45-7.79,2.12-15.59,4.24-23.41,6.24,4.05.2,7.98-.25,12.16-1.57.78-.25,1.56.74,1.07,1.39-.63.84-1.28,1.64-1.96,2.41,7.88-1.3,15.11-4.41,21.29-9.53.56-.46,1.3.28.79.79Zm-1.72,1.63c-6.51,5.89-14.73,9.48-23.77,9.96-1.27.07-1.62-1.7-.59-2.26.96-.52,1.76-1.06,2.47-1.72-5,1.29-10.28,1.5-15.32.29-.5.12-1.01.26-1.51.38-.04,4.41-.18,9.01-.57,13.53,2.48.69,4.73,2.04,7.16,2.92,3.41,1.23,6.99,2.09,10.61,2.47,3.13.33,6.37.4,9.5.01,2.61-.32,5.12-1.29,7.72-1.51,1.83-8.03,2.93-16,4.32-24.07Zm-17.68,52.36c.15-.08.31-.15.51-.16,5.98-.44,10.6-8.03,14.16-12.07,2.56-2.91,5.12-5.48,3.54-9.62-.67-1.75-2.6-3.28-3.92-4.82-.2-.03-.39-.11-.55-.23-4.72,3.3-13.01,3.19-18.37,2.58-5.25-.6-12.77-2.02-17.19-5.59-.06.56-.14,1.1-.21,1.66,2.73,1,5.31,2.81,6.24,5.53,1.28,3.74-.2,8.5-1.78,12.12,4.87,4.64,10.6,8.13,17.58,10.61Zm-10.71-1.63c-6.65-3.73-12.22-9.46-15.32-16.14-1.63,1.03-3.72,1.38-6,1.34,5.55,7.45,12.84,12.09,21.32,14.79Zm-12.24-.26c.37-.34.75-.63,1.16-.88-1.82-.99-3.44-2.43-5.05-3.68-1.66-1.29-3.31-2.61-4.96-3.92-.78.54-1.58,1.04-2.4,1.48,3.07,3,6.36,6.15,9.23,9.51.51-.98,1.38-1.91,2.03-2.51Zm-1.48,15.35c.9-2.36,1.31-4.74,1.68-7.29-5.17-3.81-9.66-9.19-13.88-13.94-1.84.73-3.76,1.22-5.72,1.5,5.8,6.85,11.47,13.45,17.92,19.73Zm-4.49-.59c-5.44-5.42-10.66-11.39-14.88-17.64-2.05,1.44-4.1,2.86-6.12,4.29,7.12.33,10.22,7.47,10.97,13.65,1.21,9.99,1.68,21.54-.8,31.37-.01.05-.04.08-.06.13.01.03.02.06.02.09,1.76-.11,3.56-.1,5.37-.03,1.45-10.61,2.84-21.46,5.49-31.86Zm-14.35,34.32c-6.77,3.3-16.22,4.24-23.66,2.57-1.99,3.93.97,7.7,5.07,8.78,2.65.7,5.46.59,8.18.53,5.61-.13,11.21-.33,16.82-.5,10.75-.32,21.82-1.23,32.56-.51-.02-3.34.03-6.68.12-10.02-6.65.56-13.47.14-20.13,0-6.1-.14-13,.53-18.96-.83Zm12.95-5.54c.15,1.04.41,2.31.18,3.3,2.31.15,4.6.32,6.79.38,6.38.18,12.89.15,19.23,1,.03-.89.05-1.78.08-2.67,0,0,0,0,0-.01-8.61.37-17.74-1.17-26.28-2Zm27.51,22.08c-.81.07-1.41-.73-1.42-1.42-.02-.78-.03-1.56-.04-2.34-10.28,1.31-20.87,1.51-31.39,1.62-.28,4.06-.81,8.03-.45,12.13.28,3.2,1.97,7.21.33,10.31-1.48,2.8-5.04,4.26-8.69,5.19,0,.04,0,.09,0,.13,11.74,2.35,23.27,6.36,34.36,10.57,6.1,2.32,12.13,4.83,18.07,7.53,3.92,1.78,8.31,3.54,11.34,6.65,3.85,3.26,4.08,9.13,3.3,14.82-.07,1.23-.16,2.47-.25,3.7-.81,5.76-1.7,11.51-2.67,17.25-1.1,6.44-2.34,12.86-3.91,19.21-1.04,4.21-1.97,9.08-3.6,13.45-.32,1.8-.64,3.66-1.36,5.28-.41.93-1.14,1.74-1.97,2.22,3.16,3.06,10.3,3.52,14.32,4.35,2.33.48,4.67,1.1,6.06,2.8.06-.19.13-.37.18-.56.02,0,.03,0,.05.01.76-1.85,1.52-3.7,2.26-5.56,2.07-5.16,4.08-10.35,6.03-15.56,1.95-5.21,3.84-10.44,5.69-15.67,1.66-4.68,2.95-9.69,5.21-14.15-.18-.13-.33-.31-.43-.55-6.43-16.12-12.41-32.43-18.56-48.66-1.48-3.9-3.06-7.77-4.43-11.71-.81-2.33-1.58-5.02-.89-7.49.42-1.49,1.23-2.57,2.29-3.35-2.58-1.54-4.47-4.39-6.05-6.82-1.58-2.43-2.99-5.17-3.45-8.03-1.18.19-2.36.15-3.4-.18-.06.3-.24.58-.58.76-4.84,2.59-10.49,3.59-15.95,4.04Zm20.08-24.05c-1.93.71-3.59,1.92-5.4,2.8.02.49-.47.98-.99.95-3.87-.24-7.61-1.54-11.33-2.56.02.55.03,1.09-.01,1.63,4.2.48,8.56,1.16,12.37,2.87,2.08-1.5,4.57-2.62,7.2-3.29.2-1.19,1.45-2.5,2.4-3.39-1.45.2-2.88.49-4.24.99Zm6.45.36c-.46.46-.86.95-1.24,1.46,1.6-.16,3.21-.17,4.78.03-.1-1.32-.18-2.68-.25-4.05-1.11.84-2.3,1.58-3.28,2.56Zm-10.41-27.22c-.43-2.04-.58-4.2-.3-6.29-.16-.03-.32-.07-.47-.11-.74-.18-1.3.07-1.87.4.73,4.6-.04,12.15,3.64,15.46.57-.24,1.23-.39,1.68-.71.37-.27.67-.65.96-1.02-2.07-1.9-3.11-5.25-3.64-7.74Zm8.91-3.53c-1.08-3.56-2.77-5.36-6.2-6.54-.37,3.2-.81,6.19-.08,9.42.58,2.55,2.32,4.64,3.25,6.95,5.23-.61,4.13-6.22,3.03-9.83Zm.06,12.03c1.75,4.55,3.05,9.47,3.87,14.27.25-.08.5-.15.75-.19,0-.02,0-.03,0-.05-.12-.07-.23-.18-.28-.34-1-2.81-1.19-5.9-1.82-8.8-.41-1.89-1.01-3.75-1.4-5.65-.33.32-.7.57-1.11.77Zm2.28-2.37c1.09,2.32,1.58,4.93,2.12,7.4.04.19.08.38.13.56.08-2.98.28-5.91.68-8.69-.82-.06-1.63-.24-2.42-.43-.15.41-.32.8-.51,1.16Zm5.66,11.62c-.09-4.75-.64-9.77-.03-14.5-.78.12-1.78-.22-2.41-.39-.61-.17-1.41-.3-2.09-.56-.04.35-.1.69-.17,1.04.88.21,1.76.44,2.57.82.27-.03.55.09.64.34.02,0,.03.02.05.03.31.19.29.54.08.74,1.13,7.52.83,16.23.28,23.79.42.1.84.21,1.25.34-.35-3.84-.1-7.8-.17-11.63Zm-16.75,16.83c-.49.37-1.05.35-1.49.13-4.4-.35-8.77-1.52-13.14-2.21-.29,5.15-.32,10.3-.2,15.46,4.61-.57,8.85-1.89,13.31-3.21-.15-.67.29-1.41,1.17-1.43,1.57-.03,2.98.39,4.58.14,1.28-.21,2.41-.72,3.56-1.24-.69-1.4-.78-3.05,0-4.46,1.01-1.81,4.16-3.46,6.19-2.43,2.32.38,4.1,3.28,3.81,5.43-.42,3.09-3.98,5.25-7.03,4.18-.47-.16-.89-.4-1.29-.68,1.02.8,1.85,1.98,2.97,2.64,1.32.78,2.96,1.28,4.54,1.62,1.46-1.79,3.26-3.18,4.41-5.25,1.13-2.03,1.67-4.31,2.16-6.55-7.36-5.52-15.3-8.34-23.57-2.12Zm11.27,7.84c1.6.9,3.87-.39,4.05-2.12.16-1.47-.81-2.25-1.89-2.92-1.08.05-2.15.09-2.97.95-1.18,1.23-.64,3.27.81,4.08Zm8.46,11.62c-.15.31-.45.47-.64.77-.17.26-.32.64-.37.95-.1.66.28,1.22.91,1.46,1.35.51,2.34-.88,2.12-2.08-.27-.16-.49-.43-.5-.82-.13-4.39,5-6.08,5.94-10.02-.36-.69-.88-1.34-1.39-1.89-.24-.26-.52-.47-.81-.66-.44,1.68-1.2,3.33-2.21,4.75-.33.92-.73,1.82-1.06,2.68-.58,1.54-1.12,3.08-1.96,4.5.01.12,0,.25-.05.37Zm25.53-4c-.06.6-.16,1.2-.3,1.79,5.88-4.5,3.2-12.13,1.87-18.64-1.02.08-2.05.17-3.07.23,1.46,5.46,2.04,11.37,1.5,16.62Zm-2.13-18.77c1.98-.11,3.96-.17,5.94-.25.84-.03,1.69-.1,2.53-.12-3.2-1.23-6.45-2.25-9.73-3.11.46,1.12.88,2.28,1.26,3.48Zm-7.82,24.48c1.96-.33,4.81-.97,6.2-2.54.86-.97.95-3.29,1.05-4.58.16-2.07-.02-4.22-.17-6.28-.37-5.11-1.51-10.04-2.44-15.06-6.66-1.6-13.48-2.48-20.47-2.7.02,1.93-.04,3.85-.26,5.74,2.3,1.16,4.29,2.9,5.71,5.33.01.02.01.05.03.07.12.09.22.22.26.38.25,1.05.29,2.21.18,3.39.73.49,1.33,1.24,1.82,1.88.79,1.04,1.05,2.11,1.23,3.37.02.16-.03.3-.11.4.17,3.77-4.97,5.44-4.97,9.2,0,.25-.09.43-.21.58.53.98.51,2.02-.27,3.05-.9,1.17-2.53,1.58-3.92,1.05-1.35-.52-2.27-1.77-2.16-3.19.07-.96.82-2.33,1.89-2.59.24-1.31.66-2.57,1.12-3.83-.57.37-1.17.67-1.8.9-.13.05-.27.05-.39.04-2.29.59-4.52.09-6.58-1.21-1.38-.87-3.41-2.54-3.55-4.3-.64.42-1.37.77-2.13,1.03,1.55,2.28,2.74,4.79,4.29,7.08,1.64,2.43,4,4.48,5.39,7.03.03.06.04.11.06.16,1.71-.59,3.69-.69,5.58-.46,2.81.33,5.65.9,8.48,1.62-1.26-2.89,3.26-5.06,6.15-5.55Zm41.3,35.24c-10.5-9.64-22.88-17.44-36.28-22.78-6.07-2.42-12.6-4.74-19.09-5.8-1.92-.32-3.89-.15-5.38.61,11.03,21.81,19.4,45.05,28.02,67.8.43.04.82.37.64.87,8.59-1.78,17.22-3.4,25.85-5.03,7.13-1.35,21.29-1.62,24.48-9.16-.4-3.39-1.65-6.81-3.34-9.57-3.86-6.3-9.41-11.91-14.88-16.93Zm25.34,33.47c2.68-4.03.63-8.54.03-12.81-2.87-2.05-5.39-4.57-8.14-6.77-.77-.62-1.59-1.21-2.43-1.79,3.98,5.33,7.17,11.54,6.4,18.28-.26,2.31-1.02,4.47-2.19,6.34,2.33-.6,4.72-.82,6.34-3.24Zm15.63,25.18c-3.3-5.31-9.84-9.13-15.79-10.99-5.87-1.83-11.37-1.56-17.28-.97-7.68,11.24-15.84,22.2-23.89,33.18-1.56,2.12-3.11,4.27-4.65,6.42,2.55-.72,5.23-1.19,7.74-1.81,4.41-1.09,7.48-2.29,10.83-5.1.09-.51.44-.96,1.11-1.12,8.13-1.94,16.19-4.15,24.14-6.68,3.41-1.09,6.8-2.22,10.16-3.42,4.69-1.67,11.77-2.88,7.64-9.52Zm-41.93,23.02c-1.13,2.1-3.49,3.38-5.88,4.24-.62.23-1.28.45-1.94.68-.05.09-.1.18-.18.27-.02.02-.03.04-.04.06,2.31,3.83,4.29,7.84,6.57,11.69,1.15,1.94,2.42,3.87,4.56,4.86,2.36,1.1,4.77.14,7.17-.35-4.44-6.32-7.6-14.18-10.26-21.44Zm12.16,19.63c1.78-1.03,3.68-1.88,5.5-2.86-.54-2.25-1.33-4.39-2.55-6.41-1.92-3.16-4.94-2.26-7.91-1.54,1.75,3.58,3.46,7.17,4.95,10.81Zm-6.12-13.21c3.16-.77,7.05-2.35,9.63.21,2.69,2.66,4.12,6.91,4.79,10.47.1.56-.1,1.14-.63,1.43-2.19,1.17-4.51,2.35-6.98,2.83.13.57-.24.96-.74,1.09-10.13,9.65-18.09-5.93-22.1-14.42-3.85,6.95-1.8,15.51,3.98,21.35,6.51,6.57,16.82,8.08,25.2,4.01,8.03-3.91,12.66-12.83,11.35-21.39-1.21-7.98-6.69-12.42-13.24-16.11-4.75,1.46-9.74,3.13-14.56,3.6,1.05,2.32,2.17,4.63,3.29,6.93Zm-21.15,45.06c12.66,7.13,29.14,6.68,42.43,1.43,13.48-5.32,22-15.54,23.68-29.59,1.6-13.32-1.3-25.05-11.16-34.26-.04.03-.06.06-.11.08-5.86,2.59-12.45,3.97-18.66,5.65,6.84,3.39,11.65,11.16,12.25,18.22.86,10.02-5.25,19.83-14.98,23.53-10.01,3.8-21.48.84-28.03-7.41-4.46-5.63-6.85-14.87-3.32-21.47-1.82.78-3.74,1.32-5.68,1.76-1.67.38-3.41.85-5.14.94-2.44,3.39-4.89,6.78-7.4,10.13-1.06,12.83,3.99,24.17,16.11,30.99Zm-28.84-19.12c.03-.08.07-.16.12-.24,8.31-12.38,18.03-24.03,26.87-36.08,8.86-12.09,17.37-24.44,26.3-36.49.15-.2.33-.34.52-.43.15-.13.34-.24.58-.3,6.48-1.57,8.88-6.42,8.88-11.74-3.05,4.17-10.47,5.26-15.28,6.26-11.88,2.47-23.79,4.91-35.72,7.11-8.03,21.51-16.53,42.9-25.74,63.97-.11.25-.32.37-.55.41.12.25-.05.61-.39.63-2.2.11-4.42-.21-6.6-.43-1.05-.1-2.13-.16-3.19-.28-8.97,0-18.39-2.04-27.17-3.44-10.06-1.6-20.04-3.56-29.96-5.81-.56.08-1.14-.33-1.12-1.03-.04-.27,0-.56.11-.82,2.59-15.67,3.61-30.99-5.37-45.19-8.21-12.98-22.88-20.99-38.05-23.97-.87-.17-1.74-.31-2.61-.45,11.31,3.08,21.67,9.35,29.15,18.33,12.83,15.39,15.69,36.66,8.37,54.88,29.98,6.25,60.25,11.31,90.86,15.12Zm-119.75-5.81c11.72-.01,23.44,0,35.17.01,8.05,0,16.22-.24,24.33,0-34.32-5.95-68.4-13.64-101.85-23.07-5.82,1.34-8.62,9.23-7.31,14.54,1.48,6,8.23,6.93,13.59,7.42,11.99,1.1,24.05,1.12,36.08,1.1Zm-47.6-23.31c-.96-.19-1.91-.43-2.86-.71-3.57,2.05-6.52,4.53-8.02,8.73-1.96,5.49-.53,11.36,3.32,15.77,3.56,4.09,8.75,6.42,14.28,6.46,5.31.04,9.02-2.14,13.33-4.21-9.26-.09-21.62-.56-24.79-9.24-2.19-6-.13-13.31,4.75-16.79Zm-33.31,23.44c1.78,10.97,8.11,19.99,18.66,24.72,18.17,8.13,54.17,2.76,58.64-19.5-4.16.26-8.45-.71-12.53-1.29-2.82-.4-5.72-.7-8.56-1.2-3.35,4.91-11.16,6.9-16.92,6.71-6.73-.23-12.97-3.58-16.83-8.88-5.58-7.68-4.13-20.69,3.99-26.02-1.7-.61-3.4-1.23-5.09-1.76-3.92-1.23-8.12-2.06-11.96-3.51-9.67,7.36-11.26,19.34-9.41,30.75Zm1.57-75.1c-.84,1.28-1.29,2.73-1.37,4.24-.02.43.01.84.05,1.24.53-.4,1.06-.8,1.61-1.18,2.18-1.51,4.5-2.87,6.92-4.11-.08-1.32-.1-2.8.18-4.1-2.98.38-5.64,1.23-7.4,3.91Zm17.17-5.13c-1.91.1-5.99-.55-7.07,1.18-.42.67-.51,1.81-.55,3,3.61-1.7,7.42-3.15,11.32-4.38-1.24.07-2.47.14-3.7.2Zm1.98,3.66c-3.24,1.09-6.64,2.46-9.94,4.12-.16.23-.41.33-.67.34-12.23,6.32-22.91,16.63-19.16,31.1,0,.01,0,.02,0,.03,38.83,12.53,78.09,22.99,117.86,31.33,6.95-17.72,3.97-38.86-8.42-53.72-12.57-15.07-33.47-22.38-53.16-19.3-.21.03-.39-.02-.53-.1-8.88,1.16-17.64,3.4-25.99,6.19Zm31.25-9.49c-3.57-2.57-7.72-2.73-11.95-2.76-.14,1.41-.16,2.84-.05,4.25,2.24-.38,4.46-.71,6.63-.98,1.77-.23,3.57-.38,5.37-.51Zm2.6-.16c2.47-.1,4.96-.12,7.45-.02-2.06-3.07-4.38-5.6-8.35-6.65-4.35-1.15-8.93.25-13.34-.54-2.01-.36-3.95-1.24-5.39-2.5.21,1.4-.36,2.97-1.45,3.93,7.64.81,17.92-1.36,21.06,5.77Zm-124.02-10.35c-.06.52-.17,1.03-.14,1.57.03.53.19,1.02.33,1.52,7.76-.95,15.99-.25,23.79-.25,8.46,0,16.92,0,25.37,0,17.18,0,34.39-.25,51.57.09.5-.33.91-.71,1.02-1.37.1-.64-.2-1.22-.51-1.77-7.87.92-16.1.45-24.01.47-9.02.02-18.04,0-27.06.01-8.71,0-17.42,0-26.12,0-7.8,0-16.46.92-24.23-.28Zm91.82-23.87c0-6.35,0-12.7-.01-19.05,0-6.35-.02-12.7-.03-19.05,0-1.89-.09-3.84-.17-5.81-13.07-.53-26.36.26-39.45.28-12.92.01-26.18.8-39.07-.09-2.12.65-4.22,1.32-6.22,2.33-2.1,1.06-3.81,2.84-5.82,3.98.78,3.79.38,7.86.39,11.7.01,5.05.01,10.11,0,15.16-.03,8.72.81,18.09-.52,26.76.11.8.28,1.52.85,2.26.77.99,1.91,1.28,2.81,2.09.19.17.29.39.32.61,6.11-.33,12.49.23,18.44.22,8.71,0,17.42,0,26.12,0,8.71,0,17.42,0,26.12.01,4.8,0,9.73-.16,14.62-.13.73-.87,1.7-1.38,2.01-2.56-.04-.09-.08-.17-.09-.28-.77-6.06-.31-12.35-.31-18.45ZM8.27,142.72c1.47-2.52,5.03-4.31,7.54-5.4,2.74-1.2,5.72-1.9,8.7-1.63,12.27-.69,24.85,0,37.11.02,13.06.01,26.3.8,39.34.28-.12-3.68-.11-7.38.63-10.83.02-.11.07-.19.12-.27-.26-.58-.45-1.22-.89-1.73-.8-.92-1.64-1.14-2.68-1.44-6.47.74-13.27.22-19.75.22-7.49,0-14.99,0-22.48,0-7.49,0-14.99.02-22.48,0-6.61-.02-13.4.26-20-.39-5.69.97-6.5,6.06-6.8,10.86-.2,3.15-1.29,8.33,1.65,10.32Zm-4.97-7.24c.09-1.12.21-2.2.27-3.13.06-1,.23-2.3.53-3.69-1.12,1.03-2.11,2.05-2.11,3.84,0,1.34.57,2.21,1.31,2.99Z"/>
      <path class="cls-5" d="m57.04,195.38c-15.11,0-27.54-11.99-27.54-26.55,0-2.99.52-5.96,1.55-8.79l4.14,1.4c-.86,2.37-1.3,4.87-1.3,7.39,0,12.25,10.45,22.32,23.15,22.32s23.15-10.08,23.15-22.32-10.45-22.32-23.15-22.32c-.68,0-1.37.03-2.05.09l-.39-4.21c.81-.07,1.62-.1,2.44-.1,15.11,0,27.54,11.99,27.54,26.55s-12.43,26.55-27.54,26.55Z"/>
      <path class="cls-5" d="m36.83,157.24l-4.02-1.84c1.54-3.11,3.77-5.85,6.55-8.01,2.78-2.16,6.02-3.7,9.5-4.49l1.03,4.2c-2.82.68-5.45,1.94-7.71,3.71-2.25,1.75-4.07,3.95-5.35,6.44Z"/>
      <polygon class="cls-29" points="55 146.6 55 146.6 57.04 168.83 55 146.6"/>
      <polygon class="cls-29" points="35.2 161.45 57.04 168.83 35.2 161.45 35.2 161.45"/>
      <path class="cls-9" d="m80.2,168.83c0,12.25-10.45,22.32-23.15,22.32s-23.15-10.08-23.15-22.32c0-2.52.44-5.01,1.3-7.39l21.85,7.39-2.05-22.23c.68-.06,1.36-.09,2.05-.09,12.7,0,23.15,10.08,23.15,22.32Zm-10.67-1.53c1.54,0,2.8-1.21,2.8-2.69s-1.25-2.69-2.8-2.69-2.8,1.21-2.8,2.69,1.25,2.69,2.8,2.69Zm-8.78,7.51c.88,0,1.6-.69,1.6-1.54s-.72-1.54-1.6-1.54-1.6.69-1.6,1.54.72,1.54,1.6,1.54Zm-13.18,0c-1.76,0-3.19,1.38-3.19,3.08s1.43,3.08,3.19,3.08,3.19-1.38,3.19-3.08-1.43-3.08-3.19-3.08Z"/>
      <path class="cls-16" d="m10.85,171.13c.02-5.05.02-10.1,0-15.16,0-.53,0-1.06.02-1.59.07-3.35.27-6.84-.4-10.11,2.01-1.14,3.72-2.92,5.82-3.98,1.99-1.01,4.1-1.69,6.22-2.34,12.89.9,26.15.11,39.06.1,13.09-.02,26.38-.81,39.44-.28.05,1.18.1,2.35.13,3.5.03.78.04,1.55.04,2.31,0,6.35.02,12.7.03,19.05,0,6.34,0,12.7,0,19.04s-.46,12.39.31,18.45c0,.11.06.19.09.28-.31,1.18-1.28,1.68-2.02,2.56-4.89-.04-9.82.13-14.62.13-8.7,0-17.42,0-26.12,0-8.71,0-17.42,0-26.12,0-5.94,0-12.33-.56-18.44-.23-.03-.23-.12-.44-.31-.61-.9-.81-2.04-1.11-2.81-2.09-.58-.73-.75-1.46-.85-2.26,1.33-8.68.49-18.04.51-26.77Zm39.05-24.03l-1.03-4.2c-3.48.8-6.72,2.32-9.5,4.49-2.78,2.17-5.02,4.9-6.55,8.01l4.02,1.85,17.53,8.04-4.47-18.19Zm7.15,48.29c15.1,0,27.53-11.99,27.53-26.56s-12.43-26.56-27.53-26.56c-.82,0-1.63.04-2.44.11l.39,4.2,2.05,22.24-21.85-7.39-4.13-1.4c-1.03,2.82-1.56,5.8-1.56,8.78,0,14.56,12.43,26.56,27.54,26.56Z"/>
      <path class="cls-9" d="m36.83,157.24c1.28-2.49,3.11-4.69,5.35-6.44,2.26-1.76,4.9-3.02,7.71-3.71l4.47,18.19-17.53-8.05Zm9.14-4.19c-.88,0-1.6.69-1.6,1.54s.72,1.54,1.6,1.54,1.6-.69,1.6-1.54-.72-1.54-1.6-1.54Z"/>
      <path class="cls-16" d="m69.53,161.91c1.54,0,2.8,1.21,2.8,2.69s-1.25,2.69-2.8,2.69-2.8-1.21-2.8-2.69,1.25-2.69,2.8-2.69Z"/>
      <path class="cls-12" d="m60.74,171.72c.88,0,1.6.69,1.6,1.54s-.72,1.54-1.6,1.54-1.6-.69-1.6-1.54.72-1.54,1.6-1.54Z"/>
      <ellipse class="cls-16" cx="47.57" cy="177.88" rx="3.19" ry="3.08"/>
      <path class="cls-12" d="m45.97,156.13c-.88,0-1.6-.69-1.6-1.54s.72-1.54,1.6-1.54,1.6.69,1.6,1.54-.72,1.54-1.6,1.54Z"/>
      <path class="cls-28" d="m186.15,65.53c4.71,2.88,19.63,9.71,22.37,1.6,1.26-3.71.88-8.53,1.27-12.42.37-3.63.76-7.25,1.34-10.85-.49-.74-.34-1.93.82-2.24,10.05-2.74,20.19-5.23,30.31-7.7,8.83-2.16,17.72-4.86,26.72-6.42-4.98-.7-10.07-1.28-14.86-2.57-.7-.19-.99-.83-.9-1.43-1.37-2.09-2.92-4.03-4.6-5.82-.22,2.41-1.22,4.84-2.81,6.73-3.21,3.83-7.83,6.36-12.71,7.84-8.09,2.45-17.05,3.26-25.39,1.85-8.35-1.42-16.39-5.82-20.77-12.82-1.73-2.75-2.86-5.93-2.7-9.14-4.55,3.38-8.3,7.69-10.69,12.93-6.66,14.55-1.32,31.91,12.6,40.46Z"/>
      <path class="cls-31" d="m233.31,19.26c-4.81.1-9.95-.95-13.33-4.25-.92-.9-1.7-1.98-1.98-3.21-.28-1.23,0-2.63.95-3.5.95-.88,2.37-1.08,3.69-1.08,3.01,0,5.98.83,8.71,2.06,1.5.67,2.97,1.47,4.14,2.6,1.17,1.13,2.04,2.61,2.14,4.21.03.47,0,.95-.2,1.39-.62,1.43-2.54,1.77-4.14,1.8Z"/>
      <path class="cls-25" d="m212.75,57.79c2.47.69,4.73,2.04,7.16,2.92.89.32,1.8.62,2.71.89.27-3.4.95-6.77,1.26-10.18,7.13,1.38,14.71.13,21.08-3.22-.99,0-1.93.14-2.88.82-1.28.94-3.06-.8-1.76-1.76,1.83-1.35,5.28-2.27,7.14-.5,1.24-.8,2.42-1.69,3.52-2.67.36-2.15.71-4.31,1.08-6.47-6.51,5.89-14.73,9.48-23.77,9.95-1.28.06-1.62-1.7-.6-2.26.96-.51,1.76-1.06,2.47-1.72-5.01,1.29-10.28,1.5-15.32.29-.5.13-1.01.26-1.51.38-.05,4.41-.18,9-.58,13.53Z"/>
      <path class="cls-2" d="m216.79,79.35c4.86,4.63,10.6,8.13,17.57,10.6.15-.08.32-.15.51-.16.09,0,.18-.02.27-.03-7.7-6.21-12.62-15.69-12.65-25.39-3.66-.89-7.35-2.24-9.97-4.35-.06.56-.14,1.11-.21,1.66,2.72,1,5.31,2.82,6.24,5.52,1.28,3.75-.2,8.5-1.77,12.13Z"/>
      <path class="cls-25" d="m200.15,81.07c1.66,1.63,3.39,3.3,5.08,5.02.4.19.8.38,1.19.57,1.47.68,2.97,1.34,4.51,1.87.17-.17.32-.32.47-.46.37-.35.75-.63,1.16-.88-1.83-1-3.44-2.43-5.05-3.68-1.67-1.3-3.31-2.61-4.96-3.92-.78.54-1.57,1.05-2.41,1.48Z"/>
      <path class="cls-7" d="m248.34,67.12c.37.21.54.63.66,1.02.57,1.92.36,4-.29,5.9-.65,1.9-1.73,3.63-2.91,5.28-1.69,2.35-3.73,4.64-6.52,5.61,1.73-1.99,3.43-4.07,4.48-6.46,1.05-2.39,1.4-5.18.39-7.59-.2-.48-.45-.95-.47-1.46-.03-.81.54-1.55,1.27-1.94.73-.39,1.59-.5,2.43-.52.33,0,.68,0,.97.16Z"/>
      <path class="cls-6" d="m258.6,147.71c-.46-.16-.9-.4-1.29-.69,1.02.8,1.85,1.98,2.98,2.64,1.32.78,2.96,1.28,4.54,1.62,1.29-1.58,2.83-2.84,3.98-4.53v-.02c.6-2.6-1.44-5.31-4.13-6.6.72,1.04,1.1,2.31.95,3.4-.42,3.08-3.98,5.25-7.03,4.18Z"/>
      <path class="cls-6" d="m233.12,143.81c-.06,0-.12,0-.18,0-.02,2.3,0,4.61.06,6.92,4.61-.57,8.86-1.89,13.31-3.21-.15-.67.28-1.41,1.17-1.43,1.56-.04,2.98.39,4.58.14,1.29-.21,2.41-.72,3.57-1.24-.69-1.4-.79-3.05,0-4.46.1-.17.22-.36.36-.53-1.84.47-3.67,1.1-5.49,1.6-5.63,1.54-11.53,1.87-17.37,2.2Z"/>
      <path class="cls-23" d="m197.56,90.17c1.74-.77,3.46-1.55,5.04-2.52-1.68-1.83-3.3-3.69-4.87-5.47-1.84.73-3.76,1.22-5.72,1.5,1.85,2.19,3.69,4.35,5.55,6.49Z"/>
      <path class="cls-28" d="m195.05,91.28c-1.59-1.99-3.09-4.03-4.48-6.1-2.05,1.44-4.1,2.86-6.12,4.3,3.04.14,5.36,1.53,7.06,3.55,1.14-.63,2.33-1.2,3.54-1.75Z"/>
      <path class="cls-25" d="m167.44,139.71c-1.99,3.93.97,7.7,5.06,8.78,2.65.7,5.45.59,8.18.53,5.6-.13,11.21-.33,16.82-.49,10.74-.32,21.82-1.22,32.56-.52,0-1.34,0-2.69.02-4.03-14.31.79-28.69,1.39-42.85-.65-2.75-.39-5.66-.97-7.64-2.85-.06-.05-.11-.11-.16-.17-4.11.44-8.3.25-11.99-.59Z"/>
      <path class="cls-28" d="m180,93.06c-.83.37-1.58.86-2.28,1.41-.12.09-.24.19-.35.28-5.05,4.31-6.54,12.64-8.02,18.47-1.66,6.52-2.81,13.11-3.67,19.75,3.81.06,7.52-.05,11.21-.35-.02-.82.02-1.64.07-2.44.43-7.01,1.61-13.98,3.53-20.76,1.51-5.3,3.62-10.74,7.96-14.32.27-.23.56-.45.84-.66-2.02-2.53-4.99-3.37-9.28-1.39Z"/>
      <path class="cls-22" d="m165.55,134.02c-.09.79-.19,1.57-.28,2.37,4.14.44,8.13,1.15,12.35.96-.39-1.09-.59-2.27-.67-3.47-3.82.28-7.65.32-11.39.15Z"/>
      <path class="cls-18" d="m165.45,190.52c-.82,1.25-1.76,2.45-2.83,3.48,2.19,1.08,4.59,1.88,6.94,2.46.17.05.34.08.51.12-.76-.73-1.47-1.5-2.13-2.31-.96-1.18-1.78-2.43-2.49-3.75Z"/>
      <path class="cls-18" d="m153.78,182.6c.33,4.65,3.1,7.94,6.79,10.25.03-.05.05-.09.09-.14,1.13-1.7,2.38-3.3,3.48-5.01-.63-1.6-1.11-3.25-1.45-4.95-1.97.04-3.94.02-5.91-.05-.99-.03-1.99-.06-3-.11Z"/>
      <path class="cls-28" d="m160.54,150.57c.5-1.85,1.03-3.7,1.56-5.55.12-.41.24-.83.36-1.24.23-.81.46-1.62.7-2.42,0,0,0,0,0,0,.26-.89.52-1.79.79-2.68.33.13.67.25,1.01.37-.48.77-.79,1.59-.93,2.42,0,0,0,0,0,0l.2.03,1.6,6.16c.33.4.7.78,1.11,1.13,4.25,3.61,10.3,3.18,15.55,3.03,4.66-.14,9.36-.19,14.09-.24-.75,2.18-1.16,4.48-1.31,6.81-3.68.32-7.39.51-11.08.69-3.49.17-6.99.35-10.45-.06-2.18-.26-4.36-.75-6.31-1.74-.64-.32-1.24-.7-1.81-1.11-1.79,5.66-3.3,11.41-3.61,17.31-.11,2.11-.07,4.26.19,6.38-1.79.03-3.58,0-5.38-.05-.87-.03-1.75-.05-2.65-.09,1.46-9.91,3.73-19.54,6.35-29.14Z"/>
      <path class="cls-25" d="m231.49,282.62c-.37-1.1-.5-2.24-.34-3.35-1.68-.14-3.37-.35-5.02-.63.41,1.22.73,2.39,2.14,3.25.99.6,2.1.78,3.21.73Z"/>
      <path class="cls-17" d="m217.01,291.96c3.68.69,7.37,1.35,11.06,1.95,9.06,1.47,18.62,1.83,27.61,3.68-2.1-2.25-5.19-3.7-8.21-4.73-4-1.36-8.28-2.28-11.72-4.67-1.22-.85-2.31-1.97-3.14-3.23-1.88.62-4.09.31-5.83-.7-1.32-.78-2.73-2.3-3.36-3.95-.72,0-1.43.06-1.87.75-.6.94.24,1.85-.1,2.75-.1.29-.34.45-.65.48-.75.96-1.53,1.9-2.12,2.97-.77,1.35-1.06,2.74-1.43,4.22-.05.18-.13.35-.24.48Z"/>
      <path class="cls-34" d="m317.84,218.18c-2.42-.78-4.79-1.65-7.11-2.65-4.65.21-9.31.35-13.96.46.15,1.13.33,2.54.76,3.22,1.07,1.73,4.01,2.93,5.93,3.03,2.98.17,6.44-.56,9.41-.89,2.15-.24,4.82-.07,4.98-3.17Z"/>
      <path class="cls-33" d="m296.64,215.05c4.01-.18,8.02-.34,12.04-.44-4.88-2.28-9.46-5.08-13.61-8.49-.14-.12-.28-.23-.42-.35.49,3.03,1.33,6.05,1.93,9,0,.08.03.18.05.27Z"/>
      <path class="cls-4" d="m263.67,165.77c11.03,21.81,19.4,45.06,28.02,67.8.43.04.82.37.64.88,8.59-1.78,17.23-3.4,25.85-5.04,6.37-1.2,18.35-1.54,23.1-6.98-.43-.02-.86-.05-1.29-.08-6.31-.47-12.66-1.49-18.77-3.17-.06,1.17-.56,2.27-1.64,3.22-2.68,2.34-7.72,2.01-11.04,2.32-3.8.37-9.03,1.8-12.05-1.23-2.95-2.95-2.89-8.89-3.59-12.69-.47-2.55-1.07-5.06-1.03-7.55-9.85-9.54-15.99-22.94-14.83-36.22-2.65-.78-5.31-1.43-7.96-1.86-1.92-.31-3.9-.15-5.39.61Z"/>
      <path class="cls-1" d="m291.34,178.58c2.15,2.21,5.08,3.52,7.87,4.9,3.92,1.94,7.71,4.14,11.37,6.51,9.09,5.89,17.39,12.9,24.64,20.81-9.71-14.85-23.86-26.97-40.31-34.51-.82-.38-1.7-.75-2.6-.66-.9.09-1.81.82-1.72,1.69.05.49.39.91.75,1.27Z"/>
      <path class="cls-4" d="m188.67,292.67c28.03,5.85,56.32,10.65,84.9,14.36,11.27-20.19,24.6-39.2,43.85-52.23.66-.45,1.34-.9,2.02-1.33,4.42-6.19,8.84-12.38,13.37-18.48.15-.2.32-.34.51-.43.15-.14.34-.24.59-.3,6.48-1.57,8.87-6.42,8.88-11.74-3.05,4.17-10.47,5.26-15.28,6.26-11.88,2.47-23.79,4.91-35.73,7.11-8.03,21.51-16.54,42.9-25.73,63.96-.11.26-.32.37-.55.41.12.25-.05.61-.4.62-2.19.11-4.41-.21-6.6-.43-1.05-.1-2.12-.16-3.19-.27-8.97,0-18.38-2.05-27.17-3.45-10.05-1.6-20.03-3.56-29.96-5.81-.55.08-1.14-.33-1.11-1.02-.05-.27,0-.56.1-.82.95-5.76,1.69-11.47,1.79-17.09-2.04-8.04-5.5-15.71-10.51-22.42-.63-.83-1.27-1.65-1.94-2.45,7.33,14.02,8.09,30.8,2.15,45.56Z"/>
      <path class="cls-4" d="m303.78,280.05c2.55-.72,5.23-1.19,7.74-1.8,4.42-1.1,7.48-2.29,10.83-5.11.09-.5.44-.95,1.12-1.12,8.13-1.94,16.19-4.15,24.14-6.68,3.18-1.01,6.34-2.08,9.49-3.18-4.56-.65-9-1.83-13.23-3.74-3.81-1.72-7.66-4.46-8.33-8.46-.48-2.88.84-5.81,2.83-8,.64-.7,1.36-1.35,2.11-1.95-2.67-.05-5.37.16-8.15.43-7.68,11.24-15.84,22.2-23.89,33.19-1.56,2.12-3.11,4.27-4.66,6.42Z"/>
      <path class="cls-1" d="m355.69,252.35c-1.63-2.13-4.06-3.52-6.24-5.14-.25-.19-.51-.39-.63-.68-.32-.76.52-1.53,1.35-1.73,1.76-.44,3.58.37,5.09,1.34,2.38,1.53,4.46,3.51,6.06,5.8.71,1.01,1.34,2.37.66,3.41-.75,1.15-2.62,1.03-3.73.2-1.11-.83-1.73-2.11-2.57-3.2Z"/>
      <path class="cls-4" d="m161.89,219.26c14.64,4.36,27.5,13.05,34.63,27.09,6.3,12.39,7.87,28.76,3.16,42.02,4.97,1.12,9.96,2.17,14.95,3.14-.04-.13-.07-.27-.06-.43.14-3.02,1.96-6.5,4.66-8.23-.05-.13-.09-.26-.1-.37-.19-.97.02-1.96.63-2.76.43-.56,1.11-1.03,1.86-1.29-.36-.35-.72-.7-1.06-1.06-1.3-1.3-2.52-2.65-3.68-4.06-2.64-3.18-4.94-6.62-6.85-10.26-4-7.63-6.31-16.44-4.42-24.78,1.24-5.5,4.62-10.69,9.27-13.97,1.86-2.96,3.94-5.83,5.67-8.9-1.35-.17-2.68-.34-4.03-.5-9.79,1.78-20.05,2.08-29.95,2.84-8.16.62-16.43,1.33-24.67,1.52Z"/>
      <path class="cls-4" d="m69.81,261.1v.04c38.83,12.53,78.09,22.99,117.87,31.33,3.32-8.46,4.37-17.72,3.21-26.68-1.24,2.56-3.54,4.75-6.18,6.04-4.08,1.97-8.77,2.21-13.34,1.91,1.95.51,3.9,1.03,5.84,1.57,1.73.48.95,3.01-.79,2.58-20-4.96-40.05-9.52-60.38-13.09-1.91-.34-1.03-3.13.86-2.8,9.23,1.63,18.44,3.41,27.61,5.37-6.72-2.8-13.07-6.44-18.79-10.83-2.39-.45-4.78-.89-7.18-1.31-1.91-.34-1.03-3.13.86-2.8.57.1,1.15.2,1.72.3-6.35-5.68-11.78-12.63-13.65-20.75-.66-2.86-.85-5.79-.61-8.69-2.46.69-4.88,1.45-7.28,2.25-3.24,1.09-6.64,2.47-9.95,4.12-.15.23-.41.33-.66.34-12.23,6.32-22.92,16.63-19.16,31.11Z"/>
      <path class="cls-1" d="m142.09,227.64c-.22,1.41.94,2.74,2.3,3.31,1.36.57,2.89.58,4.36.69,6.33.5,12.31,3.15,17.49,6.69s9.64,7.95,14,12.4c-.65-2.64-1.79-5.17-3.36-7.43-1.74-2.49-3.16-5.07-5.42-7.13-3.32-3.02-8.14-6.4-12.09-8.61-3.94-2.21-7.88-2.78-12.44-2.7-2.05.04-4.55.81-4.85,2.77Z"/>
      <path class="cls-15" d="m353.02,277.96c5.1-2.71,10.44-5,15.95-6.84-1.55-2.33-3.42-4.55-5.66-6.64-.04.02-.07.05-.1.07-5.87,2.6-12.45,3.98-18.66,5.65,3.43,1.7,6.34,4.5,8.48,7.75Z"/>
      <path class="cls-8" d="m340.77,271.31c-4.75,1.46-9.74,3.14-14.56,3.6,1.05,2.32,2.17,4.63,3.3,6.93,3.16-.77,7.04-2.35,9.62.21.89.88,1.65,1.94,2.29,3.09,2.96-2.11,6.04-4.08,9.22-5.87-2.47-3.31-5.97-5.77-9.86-7.96Z"/>
      <path class="cls-8" d="m317.46,304.8c.64.64,1.31,1.23,2.01,1.77,1.76-2.37,3.64-4.65,5.62-6.86-5.11-3-9.12-11-11.61-16.27-3.86,6.96-1.81,15.51,3.98,21.35Z"/>
      <path class="cls-15" d="m307.88,326.63c2.71-6.31,6.1-12.35,10.09-17.99-1.55-1.17-2.95-2.54-4.18-4.1-4.46-5.62-6.85-14.86-3.31-21.46-1.82.78-3.75,1.32-5.69,1.76-1.67.38-3.4.86-5.13.95-2.45,3.39-4.9,6.78-7.41,10.13-1.05,12.66,3.86,23.87,15.63,30.71Z"/>
      <path class="cls-13" d="m330.68,284.24c1.12,2.28,2.21,4.56,3.25,6.86,1.56-1.65,3.28-3.15,5.13-4.5-.15-.27-.31-.55-.47-.82-1.92-3.16-4.94-2.26-7.91-1.54Z"/>
      <path class="cls-13" d="m315.42,280.67c2.31,3.83,4.3,7.84,6.57,11.69,1.14,1.91,2.4,3.82,4.48,4.83.03-.04.05-.07.07-.11,1.08-1.85,2.47-3.74,4.42-4.62-3.04-5.37-5.42-11.38-7.49-17.03-1.13,2.09-3.5,3.37-5.89,4.23-.63.23-1.28.46-1.94.69-.05.08-.1.17-.18.26,0,.02-.02.04-.04.05Z"/>
      <path class="cls-15" d="m135.07,304.85c-.41.59-.87,1.14-1.39,1.65,6.99,1.73,13.9,3.76,20.73,6.06.79-1.63,1.38-3.37,1.75-5.23-4.15.26-8.45-.71-12.53-1.29-2.82-.4-5.72-.7-8.55-1.2Z"/>
      <path class="cls-15" d="m132.22,304.71c-2.47-.03-5.17-.07-7.85-.31,1.95.4,3.91.82,5.86,1.28.65-.32,1.32-.65,1.99-.97Z"/>
      <path class="cls-8" d="m101.29,286.69c-1.78,4.98-.76,10.27,2.31,14.5,4.15.43,8.3.99,12.41,1.66-3.95-1.3-7.19-3.54-8.59-7.39-2.2-6.01-.13-13.32,4.74-16.79-.96-.19-1.91-.44-2.85-.71-3.57,2.05-6.51,4.52-8.02,8.73Z"/>
      <path class="cls-15" d="m78.59,300.28c5.04-.17,10.1-.12,15.12.14,2.16.11,4.32.26,6.48.45-4.2-7.77-2.39-19.28,5.12-24.22-1.71-.61-3.4-1.23-5.09-1.76-3.92-1.23-8.12-2.06-11.96-3.52-9.16,6.97-11.07,18.08-9.67,28.92Z"/>
      <path class="cls-8" d="m117.48,286.33c3.4.96,6.8,1.91,10.19,2.87-.46-2.84-3.04-5.07-6.38-4.98-.64.02-1.2.1-1.73.25-.76.55-1.48,1.18-2.09,1.86Z"/>
      <path class="cls-13" d="m111.15,284.55c1.16.33,2.31.65,3.47.98,1.35-1.99,3.52-3.49,5.99-3.75,5.4-.56,9.59,3.44,9.76,8.17,14.25,4.01,28.49,8.02,42.73,12.02,7.28,0,14.56,0,21.84.02,8.05,0,16.22-.24,24.33,0-34.32-5.95-68.39-13.65-101.85-23.07-2.86.66-5,2.9-6.27,5.64Z"/>
      <path class="cls-3" d="m297.95,202.73c-.19.32-.04.73.18,1.04.6.87,1.61,1.39,2.56,1.89,3.82,1.99,7.51,4.22,11.03,6.67-2.76-3.44-6.31-6.23-10.01-8.71-.79-.53-1.61-1.05-2.55-1.23-.44-.08-.99-.04-1.21.34Z"/>
      <path class="cls-33" d="m293.08,152.81c-.07.59-.17,1.2-.3,1.79,3.12-2.4,3.83-5.67,3.61-9.19-1.04.34-2.1.63-3.2.85.14,2.24.1,4.44-.11,6.55Z"/>
      <path class="cls-33" d="m270.86,127.53c-1.18-.08-2.36-.14-3.55-.17.02,1.93-.04,3.85-.27,5.74,1.34.67,2.57,1.54,3.63,2.62-.79-2.71-.76-5.62.18-8.19Z"/>
      <path class="cls-4" d="m253.19,148.63c1.55,2.28,2.74,4.79,4.29,7.08,1.64,2.43,3.99,4.47,5.39,7.02.03.05.04.11.06.16,1.71-.59,3.69-.69,5.58-.46,2.81.33,5.64.9,8.48,1.62-1.26-2.89,3.26-5.06,6.14-5.55,1.96-.34,4.81-.97,6.2-2.54.86-.96.95-3.29,1.05-4.57.12-1.54.05-3.14-.06-4.71-6.16.56-12.68-1.22-16.73-5.67-.11-.12-.22-.25-.33-.37.03.53.02,1.08-.04,1.63.73.48,1.34,1.23,1.82,1.87.79,1.04,1.05,2.11,1.22,3.37.03.16-.03.29-.11.39.18,3.77-4.97,5.44-4.97,9.21,0,.24-.09.42-.21.58.53.98.51,2.02-.27,3.04-.9,1.18-2.53,1.58-3.93,1.04-1.36-.51-2.27-1.76-2.16-3.19.08-.96.82-2.33,1.9-2.58.24-1.32.66-2.58,1.12-3.84-.57.37-1.17.68-1.8.9-.13.05-.27.05-.4.04-2.29.59-4.51.08-6.57-1.22-1.38-.87-3.41-2.54-3.56-4.31-.64.42-1.37.77-2.12,1.03Z"/>
      <path class="cls-15" d="m134.25,205.75c-1.02.2-2.06.44-3.04.77,1.24.1,2.36.28,3.28.63,3.95,1.5,7.64,4.78,8.64,8.84,3.45.22,6.88.62,10.27,1.24,10.37-1.2,20.92-1.42,31.35-1.98,7.25-.39,14.6-1.14,21.93-1.53-2.88-.33-5.76-.65-8.66-.93-10.75-1.08-21.54-1.3-32.29-2.21-6.86-.59-14.04-2.09-19.58-6.2-4,.12-7.98.58-11.89,1.37Z"/>
      <path class="cls-15" d="m124.02,216.75c.48-.07.97-.13,1.44-.19,1.77-.23,3.57-.38,5.38-.51-1.98-1.43-4.15-2.11-6.41-2.43-.2.77-.33,1.56-.38,2.35-.02.26-.03.52-.03.79Z"/>
      <path class="cls-28" d="m8.27,142.72c1.47-2.51,5.03-4.31,7.54-5.4,2.74-1.2,5.72-1.9,8.7-1.63,12.27-.69,24.84,0,37.11.02,13.06.02,26.3.8,39.34.28-.04-1.33-.07-2.66-.05-3.98-1.24.66-2.95.88-4.42.91-26.11.68-52.26.47-78.36-.63-2.49-.1-5.14-.26-7.21-1.62-1.65-1.09-2.63-2.7-3.19-4.52-.75,1.87-.99,4.1-1.12,6.25-.2,3.15-1.29,8.33,1.65,10.31Z"/>
      <path class="cls-28" d="m144.92,132.58l-.34.07c.89.17,1.79.35,2.68.52-.79-.2-1.56-.39-2.34-.59Z"/>
      <path class="cls-28" d="m10.87,154.38c2.12-1.9,4.26-3.78,6.42-5.64,2.38-2.05,4.84-4.08,7.75-5.33,3.52-1.52,7.47-1.77,11.32-1.97,21.57-1.14,43.21-1.2,64.8-.16-.03-1.15-.09-2.32-.13-3.5-13.07-.53-26.35.27-39.44.28-12.91,0-26.18.8-39.06-.1-2.12.65-4.23,1.33-6.22,2.34-2.1,1.06-3.81,2.83-5.82,3.98.67,3.27.46,6.76.4,10.11Z"/>
      <path class="cls-31" d="m91.57,126.18c.44.58.19,1.59-.34,2.04-.53.45-1.22.49-1.87.52-17.86.73-35.75.45-53.6-.85-1.95-.14-4.02-.35-5.59-1.77.37-1.22,1.7-1.4,2.77-1.38,19.11.33,38.23.66,57.34,1,.46,0,.97.04,1.29.45Z"/>
      <path class="cls-35" d="m243.82,36.24c-7.78,2.12-15.59,4.23-23.41,6.23,4.04.2,7.97-.25,12.16-1.57.78-.25,1.55.74,1.07,1.39-.63.84-1.28,1.65-1.96,2.41,7.89-1.3,15.11-4.41,21.3-9.53.56-.47,1.3.27.79.79-.06.05-.11.11-.17.17.05.08.09.17.09.27.27,3.14.17,6.44-.17,9.77.96-.07,1.83-.31,2.61-.69.91-2.2.93-4.71.44-7.05-.37-1.75-1.01-3.43-1.74-5.07-3.68.95-7.37,1.87-10.99,2.86Z"/>
      <path class="cls-35" d="m185.83,78.77c-.6,1.05-1.27,1.88-2.09,2.58,6.31,1.13,12.47-.4,17.79-3.96.1-.11.24-.2.39-.27.04-.03.09-.05.13-.09-1.07-1.22-2.07-2.48-2.98-3.77-4.61-.63-9.05-2.15-13.08-4.38-2,1.86-4.48,3.25-7.1,4.19,2.62.79,5.41,1.01,8.13.61-2.19,1.18-4.41,2.38-6.37,3.87,1.37-.24,2.78-.4,4.2-.5.94-.06,1.37,1.03.98,1.72Z"/>
    </g>
  </g>
</svg>